<?xml version="1.0" standalone="no"?>
<!DOCTYPE svg PUBLIC "-//W3C//DTD SVG 20010904//EN"
 "http://www.w3.org/TR/2001/REC-SVG-20010904/DTD/svg10.dtd">
<svg version="1.0" xmlns="http://www.w3.org/2000/svg"
 width="552.000000pt" height="360.000000pt" viewBox="0 0 552.000000 360.000000"
 preserveAspectRatio="xMidYMid meet">

<g transform="translate(0.000000,360.000000) scale(0.100000,-0.100000)"
fill="#000000" stroke="none">
<path d="M6 3515 c-3 -44 -5 -113 -4 -152 l1 -73 39 0 c46 0 51 17 6 23 l-33
4 33 1 c30 2 32 4 32 42 0 33 -3 40 -20 40 -11 0 -20 4 -20 10 0 5 11 9 25 8
14 -1 25 -7 25 -12 0 -5 2 -7 5 -4 3 3 -1 18 -9 34 -19 36 -12 44 14 16 18
-19 20 -36 21 -154 l0 -133 56 -38 c31 -20 58 -36 59 -34 2 2 -2 20 -8 41 -8
26 -24 46 -50 64 l-38 25 0 138 c0 81 -4 140 -10 144 -5 3 -10 0 -11 -7 -1
-15 -31 48 -36 75 -2 12 1 16 9 11 7 -4 8 -3 4 5 -4 6 -24 10 -46 9 l-39 -3
-5 -80z m47 -82 c-7 -2 -19 -2 -25 0 -7 3 -2 5 12 5 14 0 19 -2 13 -5z"/>
<path d="M120 3580 c0 -11 5 -20 10 -20 6 0 10 9 10 20 0 11 -4 20 -10 20 -5
0 -10 -9 -10 -20z"/>
<path d="M269 3560 c0 -22 -1 -56 -1 -75 0 -19 1 -93 1 -165 l1 -130 64 0 63
0 6 68 c4 37 7 129 7 205 0 129 -1 137 -19 137 -14 0 -21 -8 -23 -27 -2 -22
-9 -29 -29 -31 -22 -3 -27 2 -32 27 -10 47 -37 41 -38 -9z m101 -130 c0 -28
-3 -30 -35 -30 -32 0 -35 2 -35 30 0 28 3 30 35 30 32 0 35 -2 35 -30z m0
-145 c0 -33 -1 -34 -35 -33 -31 1 -35 4 -35 29 0 29 10 37 48 38 19 1 22 -4
22 -34z"/>
<path d="M450 3185 c-1 -231 -2 -469 -1 -529 2 -101 1 -108 -16 -104 -10 3
-25 7 -33 9 -8 2 -20 10 -26 18 -6 8 -18 15 -25 17 -8 1 -90 38 -182 82 l-167
81 0 -119 c0 -107 2 -119 17 -113 11 5 14 3 8 -6 -6 -10 -2 -11 15 -6 16 5 20
4 15 -5 -5 -9 -1 -10 15 -5 14 4 20 3 16 -3 -3 -5 1 -13 10 -16 8 -3 12 -2 9
4 -3 6 -1 10 4 10 6 0 11 -8 12 -17 0 -12 2 -13 6 -5 4 10 9 9 20 -5 8 -10 12
-12 8 -5 -3 6 -1 12 4 12 6 0 11 -8 12 -17 0 -10 3 -13 5 -6 4 9 11 9 32 0 15
-6 30 -15 33 -20 3 -4 18 4 33 18 15 14 35 24 44 24 15 -1 15 -2 -1 -6 -26 -7
-19 -71 9 -89 30 -21 60 3 50 40 -4 15 -10 25 -15 22 -4 -3 -8 1 -8 9 0 21 11
19 33 -6 10 -11 37 -29 59 -39 22 -11 36 -19 31 -20 -6 0 -1 -6 10 -14 19 -14
18 -15 -3 -13 -12 0 -21 5 -20 10 1 5 -4 12 -10 14 -7 3 -13 0 -13 -5 0 -5
-12 -7 -26 -4 -17 3 -25 1 -21 -5 18 -29 -54 -15 -195 37 -84 32 -163 60 -175
64 l-23 7 0 -493 0 -494 39 -22 c53 -30 98 -83 111 -133 6 -23 9 -44 6 -47 -3
-3 -6 0 -6 6 0 7 -4 12 -10 12 -5 0 -7 -8 -4 -18 4 -9 -5 -3 -19 14 -14 17
-46 47 -71 68 l-46 37 0 -80 c0 -67 3 -81 15 -81 34 0 105 -47 105 -69 0 -6 4
-11 9 -11 5 0 12 -7 15 -16 5 -12 0 -11 -22 4 -15 10 -40 22 -57 26 -16 4 -38
9 -48 12 -39 12 -13 -14 38 -36 30 -13 55 -27 55 -31 0 -11 -50 -29 -80 -29
l-30 0 0 -89 0 -89 33 -6 c51 -10 97 -68 97 -123 l0 -28 -21 35 c-25 41 -67
88 -91 101 -16 9 -18 4 -18 -36 0 -43 1 -45 28 -45 31 0 67 -22 82 -49 9 -17
7 -18 -28 -5 -20 7 -47 13 -59 14 -22 0 -23 -4 -23 -69 l0 -70 42 24 c28 16
59 25 89 25 97 0 54 -33 -71 -54 -59 -10 -58 -8 -59 -137 -2 -106 0 -123 16
-134 17 -13 17 -14 0 -32 -12 -14 -17 -36 -17 -76 0 -67 10 -71 59 -27 29 27
39 30 87 28 30 -1 54 -5 54 -9 0 -17 157 3 213 27 63 28 69 29 142 20 28 -3
57 -1 65 4 13 8 13 10 -2 10 -26 0 -49 29 -39 48 8 15 3 17 -32 19 -43 3 -61
18 -51 43 4 12 3 12 -7 3 -17 -17 -50 2 -42 24 5 12 2 15 -11 10 -12 -5 -19 1
-27 20 -8 20 -12 24 -18 14 -5 -8 -14 -10 -21 -6 -9 5 -11 4 -6 -3 4 -7 -3
-14 -19 -18 -13 -3 -22 -10 -19 -15 3 -5 0 -9 -5 -9 -6 0 -11 -5 -11 -11 0 -7
11 -8 31 -4 22 5 29 4 25 -4 -4 -6 -3 -11 3 -11 6 0 8 -7 5 -15 -4 -8 -2 -15
4 -15 6 0 12 5 14 11 4 12 38 1 38 -12 0 -5 -7 -9 -15 -9 -9 0 -12 -6 -8 -17
5 -13 2 -15 -15 -11 -16 4 -25 0 -32 -13 -6 -10 -19 -19 -30 -19 -10 0 -21 -6
-23 -12 -4 -10 -6 -10 -6 -1 -1 7 -8 10 -16 7 -8 -4 -15 -1 -15 5 0 6 5 11 11
11 5 0 7 5 3 11 -3 6 -15 8 -26 5 -12 -2 -27 2 -36 10 -8 9 -23 13 -33 11 -12
-3 -16 0 -12 9 3 9 -2 14 -15 14 -14 0 -19 7 -19 24 0 21 4 24 26 21 14 -2 32
-4 39 -4 7 -1 10 -6 7 -12 -4 -6 2 -13 13 -16 14 -3 19 -11 17 -24 -5 -23 27
-25 63 -6 l23 13 -26 12 c-15 7 -24 8 -20 2 3 -6 -1 -7 -9 -4 -9 3 -16 17 -16
30 0 19 5 24 26 24 21 0 25 4 21 19 -3 12 4 23 24 35 16 10 29 23 29 31 0 17
30 34 48 28 15 -6 15 2 2 28 -8 14 -7 19 1 19 8 0 8 4 -1 15 -10 12 -10 15 1
15 10 1 8 4 -3 11 -10 5 -18 19 -18 29 0 11 -4 20 -10 20 -15 0 -12 36 4 49
11 10 15 8 19 -6 3 -13 5 -14 6 -3 1 21 112 55 123 37 5 -8 8 -7 8 6 0 13 -8
17 -34 17 -19 0 -37 -4 -40 -9 -3 -4 -18 -7 -33 -5 -14 1 -39 -4 -54 -12 -35
-18 -40 -18 -33 0 3 8 16 17 30 20 23 6 23 8 9 30 -10 15 -36 29 -73 40 -38
10 -69 27 -88 47 -25 26 -26 30 -9 27 16 -2 19 2 18 20 -2 16 2 22 18 22 28 0
61 -19 54 -30 -3 -6 0 -8 7 -5 8 3 25 -14 43 -42 l30 -48 3 32 c2 23 7 30 18
26 8 -3 14 1 14 11 0 9 7 16 15 16 9 0 15 9 15 23 -1 20 -2 21 -14 5 -7 -10
-20 -18 -28 -18 -8 0 -19 -5 -26 -12 -9 -9 -12 -9 -12 1 0 7 -5 9 -12 5 -7 -4
-8 -3 -4 5 4 6 12 9 17 6 5 -3 6 1 3 9 -3 9 -1 16 6 16 6 0 8 4 5 10 -3 5 -2
10 4 10 5 0 15 -8 20 -17 10 -17 10 -17 11 0 0 46 -103 104 -136 76 -12 -10
-13 -9 -9 4 4 9 0 17 -12 21 -10 3 -19 15 -20 26 -2 22 12 27 20 8 4 -10 6
-10 6 0 1 7 6 10 13 6 7 -4 8 -3 4 4 -4 7 -13 12 -20 12 -8 0 -19 7 -26 15
-11 14 -8 15 31 10 24 -3 46 -10 47 -15 2 -6 9 -10 17 -10 7 0 18 -6 24 -14
10 -12 18 -11 51 8 36 19 39 25 38 58 -1 23 -5 35 -13 32 -7 -3 -12 6 -12 25
0 17 4 28 9 25 4 -3 8 7 8 21 l0 26 -46 -33 c-51 -36 -84 -73 -84 -94 0 -8 -4
-14 -9 -14 -11 0 10 74 33 118 12 23 27 33 58 41 l43 11 -45 -5 c-64 -8 -118
-48 -151 -115 -16 -30 -28 -51 -29 -47 0 4 9 26 20 49 14 29 17 46 10 59 -6 9
-7 24 -4 32 9 24 65 59 113 72 l46 11 0 202 c0 131 3 200 10 197 6 -3 18 -8
28 -11 15 -6 17 -22 18 -128 1 -66 0 -131 -1 -143 -1 -13 4 -23 12 -23 10 0
13 35 13 167 0 153 -2 169 -18 175 -10 4 -15 12 -12 18 4 6 10 8 15 5 4 -3 10
13 12 35 2 28 0 40 -9 40 -7 0 -13 5 -13 10 0 6 5 10 10 10 6 0 10 24 10 53
-1 49 -2 51 -16 32 -16 -20 -16 -20 -9 3 8 29 -3 64 -18 56 -8 -5 -8 -2 1 7
17 19 15 34 -3 19 -24 -20 -28 -7 -26 83 2 65 -2 87 -14 97 -22 18 -18 30 10
30 14 0 25 5 25 10 0 18 22 10 27 -10 3 -11 9 -17 14 -15 11 7 74 -20 84 -35
6 -9 3 -9 -13 -1 -32 17 -47 14 -31 -6 13 -14 11 -16 -11 -10 -14 3 -35 9 -47
12 -15 5 -23 3 -23 -4 0 -6 7 -11 15 -11 12 0 15 -14 15 -67 0 -43 4 -63 9
-54 5 7 7 26 5 41 -5 31 19 58 56 62 20 3 25 -3 36 -47 7 -27 12 -38 10 -22
-2 15 1 27 5 27 5 0 9 -11 9 -26 0 -19 8 -28 33 -39 39 -16 92 -70 106 -108
16 -43 13 -117 -8 -162 -20 -45 -70 -92 -107 -101 -40 -10 -29 -38 25 -64 l50
-23 -5 -196 c-6 -205 -10 -241 -24 -205 -4 11 -4 69 1 130 4 60 8 143 8 185
l1 75 -35 17 c-20 9 -38 17 -41 17 -3 0 -4 -20 -2 -45 2 -25 6 -44 9 -43 13 6
40 -27 49 -62 11 -41 -10 -223 -30 -260 -6 -10 -10 -43 -10 -74 0 -30 -5 -67
-10 -82 -16 -41 -4 -41 17 1 l19 36 1 -35 c1 -20 -2 -36 -7 -36 -4 0 -5 -10
-3 -23 3 -12 -2 -41 -10 -65 -8 -23 -11 -42 -6 -42 5 0 9 6 9 13 0 6 12 18 27
24 26 12 42 5 43 -18 0 -6 -33 -18 -60 -23 -3 -1 -11 -5 -17 -9 -8 -5 -13 -4
-13 2 0 6 -6 11 -14 11 -12 0 -14 10 -10 42 3 24 2 39 -3 35 -4 -5 -9 -37 -10
-72 l-2 -63 32 9 c18 5 33 9 34 9 2 0 3 -27 3 -60 0 -36 4 -60 11 -60 5 0 7 4
4 10 -6 10 41 99 60 112 5 4 20 8 32 8 18 0 13 -9 -33 -55 -30 -30 -53 -59
-49 -64 3 -5 -4 -16 -15 -24 -20 -14 -20 -16 -5 -87 15 -73 25 -99 25 -67 0
12 8 17 26 17 19 0 25 -4 20 -15 -3 -8 -1 -15 4 -15 23 0 7 -21 -20 -26 -16
-4 -30 -11 -30 -17 0 -6 3 -8 6 -5 3 4 17 0 31 -7 23 -12 28 -11 59 21 19 19
41 34 49 34 21 0 26 1 65 18 31 13 33 13 21 -2 -7 -9 -19 -16 -25 -16 -12 0
-96 -39 -86 -39 3 -1 26 6 52 13 25 8 49 12 52 9 3 -4 6 -1 6 5 0 8 69 37 115
48 6 2 37 10 69 19 33 8 64 14 70 11 7 -3 6 -5 -2 -5 -11 -1 -11 -4 0 -15 8
-7 48 -16 91 -20 42 -4 75 -11 72 -15 -5 -10 680 -25 695 -16 5 3 454 6 998 6
665 -1 982 2 972 9 -11 8 -5 10 23 8 21 -1 41 -6 43 -10 10 -15 32 -8 30 9 -1
14 6 18 32 16 18 0 41 -8 51 -17 10 -9 26 -16 37 -15 16 0 15 2 -5 10 -19 8
-21 12 -11 24 7 8 9 15 5 15 -4 0 -2 7 5 15 13 16 6 35 -15 35 -8 0 -17 4 -20
10 -4 6 10 9 34 8 23 -1 41 -6 41 -11 0 -5 10 -7 22 -4 14 4 48 -7 95 -30 l72
-36 123 5 c82 4 132 11 151 21 22 11 37 12 67 5 26 -7 54 -7 78 -1 26 6 44 6
61 -3 16 -8 31 -10 42 -3 10 5 35 9 56 9 46 0 58 7 68 40 18 63 30 70 108 69
64 -1 68 -2 32 -9 -22 -5 -49 -11 -60 -13 -11 -3 -23 -6 -27 -6 -5 -1 -8 -6
-8 -12 0 -6 -9 -24 -21 -40 -11 -16 -22 -37 -23 -46 -2 -9 -11 -22 -21 -29
-17 -13 -16 -14 12 -14 18 0 35 -4 38 -10 13 -21 23 -9 15 19 -4 16 -6 32 -2
35 9 10 62 7 62 -3 0 -5 7 -12 15 -15 26 -9 29 23 6 54 -23 32 -13 47 20 29
18 -9 20 -17 16 -47 -6 -42 1 -26 28 59 16 52 55 109 73 109 4 0 8 9 8 20 0
23 -11 24 -74 8 l-47 -13 50 -5 50 -5 -45 -13 c-25 -8 -53 -18 -64 -24 -28
-15 -47 9 -22 28 26 19 14 18 -61 -5 -35 -11 -63 -16 -63 -12 0 13 53 47 95
62 22 8 42 17 45 20 13 17 50 16 100 -1 l55 -19 18 20 c9 12 17 25 17 29 0 10
-73 19 -80 11 -9 -12 -45 -6 -43 6 4 17 -9 16 -33 -1 -10 -8 -29 -13 -40 -10
-12 3 -39 -4 -60 -15 -38 -21 -39 -21 -46 -1 -9 24 -21 25 -38 5 -9 -10 -9
-15 -1 -15 15 0 14 -27 -1 -36 -6 -4 -21 4 -34 21 -22 27 -24 28 -95 21 -55
-5 -79 -12 -96 -28 -13 -12 -23 -18 -23 -14 0 10 51 51 65 52 5 0 32 4 58 9
34 5 56 4 72 -5 29 -16 50 -3 59 36 6 21 9 24 21 14 12 -10 15 -9 15 3 0 8 12
22 26 32 19 12 23 20 15 29 -17 20 -10 66 11 66 9 0 20 -5 23 -10 11 -18 24
-11 20 11 -3 12 -2 26 1 30 3 5 5 119 5 254 -1 154 3 245 9 245 6 0 11 -10 11
-22 1 -21 2 -21 6 -3 3 11 10 23 17 27 8 6 7 8 -1 8 -9 0 -13 17 -13 50 0 47
2 50 25 50 14 0 25 4 25 9 0 4 -11 6 -25 3 -24 -4 -25 -2 -25 47 0 48 2 51 25
51 14 0 25 4 25 9 0 4 -11 6 -25 3 -24 -4 -25 -2 -25 45 0 44 3 50 28 61 22
10 23 11 4 8 -21 -4 -23 -1 -20 32 5 45 20 48 29 7 6 -29 7 -29 8 8 0 20 1 40
0 43 -1 9 23 24 37 24 6 0 16 -19 21 -42 l11 -43 1 43 c1 35 4 42 21 42 17 0
20 -7 20 -50 0 -49 -1 -50 -31 -50 -16 0 -28 -4 -25 -9 3 -4 17 -6 31 -3 24 4
25 3 25 -51 0 -44 -3 -56 -17 -60 -10 -3 3 -5 29 -6 35 -1 48 -5 51 -18 4 -17
5 -17 6 0 1 13 11 17 49 18 26 1 37 4 25 6 -20 4 -23 11 -23 51 -1 38 -3 44
-11 29 -6 -11 -9 -32 -7 -48 4 -23 1 -29 -14 -29 -15 0 -18 8 -18 54 l0 53 40
-3 c22 -2 42 1 45 7 4 5 -3 9 -14 9 -17 0 -21 6 -20 33 0 32 0 32 11 7 11 -25
11 -25 17 10 9 52 13 412 6 474 -6 49 -9 53 -32 50 -13 -1 -30 -10 -37 -19
-11 -15 -16 -16 -36 -5 l-23 13 24 13 c13 7 35 14 49 14 14 0 32 5 40 10 12 8
9 10 -13 10 -35 0 -121 -29 -217 -73 -41 -20 -78 -33 -82 -31 -5 3 -8 26 -9
52 0 29 -3 40 -7 29 -8 -19 -430 -232 -441 -222 -7 8 28 35 46 35 7 0 13 5 13
10 0 6 -18 1 -40 -10 -44 -22 -50 -24 -50 -12 0 5 18 18 40 31 45 25 52 35 15
21 -35 -13 -31 2 6 24 24 14 33 16 39 6 6 -9 13 -9 28 -1 27 15 30 14 35 -6 4
-15 5 -14 6 3 0 11 6 25 13 32 19 19 -3 14 -39 -8 -18 -11 -33 -15 -33 -10 0
11 74 60 91 60 6 0 9 -7 5 -15 -4 -13 -2 -14 14 -5 11 6 20 13 20 16 0 3 -4 2
-10 -1 -5 -3 -10 0 -10 8 0 8 22 26 50 41 51 28 65 42 30 31 -41 -13 -9 20 51
53 61 34 78 58 20 27 -56 -28 -35 7 24 42 54 32 86 30 43 -3 -15 -11 -17 -14
-5 -11 12 5 17 1 17 -13 0 -10 -9 -22 -21 -25 -37 -12 -98 -59 -99 -76 0 -8
-6 -21 -12 -28 -11 -11 -9 -11 10 -2 12 7 20 16 18 20 -9 14 17 39 69 66 l50
26 6 -43 c3 -24 7 20 7 100 2 119 4 142 17 142 8 0 15 4 15 10 0 12 82 60 104
60 9 0 19 7 22 15 4 8 13 15 20 15 8 0 17 7 21 16 3 8 11 13 19 10 7 -3 14 0
16 6 6 16 96 -29 101 -50 3 -9 5 12 6 47 l1 63 -49 -5 c-26 -3 -83 -19 -125
-36 -43 -17 -80 -31 -83 -31 -5 0 2 165 8 180 1 3 5 -8 9 -25 l8 -30 1 32 c1
43 37 61 144 73 45 6 83 10 85 10 1 0 2 72 2 160 l0 160 -910 0 -910 0 0 -60
c0 -55 2 -60 23 -61 12 -1 0 -6 -28 -12 -27 -5 -55 -15 -61 -22 -7 -6 -34 -69
-60 -140 -35 -91 -45 -130 -36 -133 6 -2 12 -14 12 -27 0 -31 16 -40 29 -18 9
16 10 16 11 1 0 -12 6 -15 23 -11 17 4 19 3 11 -6 -7 -8 -8 -27 -4 -52 4 -21
4 -39 -1 -39 -6 0 -39 -55 -39 -66 0 -1 9 0 20 3 11 3 20 9 20 14 0 5 5 9 10
9 7 0 10 -39 9 -107 -1 -99 -3 -112 -30 -159 -31 -54 -35 -69 -19 -59 16 10
11 -1 -7 -16 -11 -10 -14 -10 -9 -1 4 6 2 12 -3 12 -6 0 -11 13 -11 29 0 27
-3 29 -30 26 -36 -5 -46 9 -29 41 18 35 1 49 -37 29 -36 -19 -44 -19 -44 0 0
8 -5 15 -11 15 -6 0 -8 -9 -4 -22 5 -18 4 -20 -4 -8 -7 10 -11 11 -11 3 0 -7
-5 -13 -10 -13 -7 0 -7 7 1 21 10 20 9 21 -9 17 -15 -4 -19 -2 -15 8 3 8 -1
14 -8 14 -7 0 -9 3 -6 6 4 4 14 1 23 -6 13 -12 17 -11 24 0 11 17 4 30 -16 30
-11 0 -13 6 -8 22 6 20 5 21 -9 10 -9 -8 -21 -11 -28 -7 -8 5 -9 1 -5 -13 4
-12 2 -24 -6 -29 -7 -4 -13 -14 -14 -20 -3 -39 -5 -44 -14 -38 -5 3 -10 1 -10
-4 0 -6 4 -11 9 -11 15 0 19 -36 5 -54 -7 -10 -25 -19 -41 -19 -15 -1 -34 -9
-41 -17 -11 -13 -12 -12 -4 5 6 13 4 28 -3 43 -9 17 -14 20 -18 10 -3 -7 -6
-3 -6 10 -1 20 -3 21 -21 10 -12 -8 -18 -19 -14 -30 3 -10 1 -18 -5 -18 -6 0
-11 9 -11 19 0 15 -5 18 -21 14 -18 -5 -20 -3 -14 16 3 12 3 21 -2 20 -20 -3
-33 2 -31 12 2 6 -6 12 -18 13 -13 2 -20 -4 -21 -17 -2 -26 -11 -33 -25 -19
-8 8 -17 6 -36 -8 -14 -11 -34 -20 -44 -20 -11 0 -22 -9 -25 -20 -3 -13 -14
-20 -29 -20 -27 0 -23 26 4 33 13 3 11 6 -8 14 -14 6 -30 7 -35 2 -6 -4 -32
-13 -59 -19 -42 -9 -52 -8 -80 10 -37 22 -48 18 -40 -14 5 -21 2 -22 -78 -21
-46 1 -94 5 -107 9 l-24 8 24 15 c13 8 17 12 9 10 -8 -2 -25 0 -37 4 -14 5
-23 5 -23 -1 0 -5 -15 -8 -32 -6 -18 2 -32 9 -30 15 1 6 -6 11 -16 11 -10 0
-25 11 -32 25 -16 29 -19 30 -68 9 -20 -9 -75 -29 -122 -46 -152 -54 -233
-109 -266 -180 l-15 -33 7 35 c10 50 44 90 112 130 53 31 58 36 43 48 -9 7
-11 11 -5 8 6 -3 11 1 11 8 0 7 -5 13 -11 13 -6 0 -26 3 -45 8 -25 5 -32 4
-26 -5 4 -7 -5 -5 -23 4 -29 15 -31 15 -37 -4 -4 -11 -12 -21 -18 -21 -67 -8
-78 -7 -75 10 2 10 -1 20 -7 22 -16 7 -24 -68 -23 -221 0 -80 0 -164 -1 -187
l-1 -43 -65 0 c-63 0 -65 -1 -65 -25 0 -23 4 -25 45 -25 45 0 45 0 45 -36 0
-31 -3 -35 -22 -34 -53 5 -68 0 -68 -20 0 -17 7 -20 45 -20 l45 0 0 -108 c0
-60 -3 -111 -6 -115 -4 -3 -23 2 -44 13 -21 11 -40 16 -44 13 -3 -3 -9 2 -12
12 -9 22 -186 107 -206 100 -9 -4 -18 0 -21 9 -5 11 -265 146 -283 146 -2 0
-4 -6 -4 -14 0 -8 -7 -16 -15 -20 -9 -3 -15 -19 -15 -41 0 -22 -4 -34 -10 -30
-5 3 -10 44 -10 89 0 114 -7 148 -32 144 -19 -3 -20 4 -19 167 2 263 3 975 2
1023 -1 30 -5 42 -16 42 -14 0 -21 -51 -17 -120 0 -10 -6 -7 -19 9 -12 15 -19
39 -19 67 l0 44 -150 0 -150 0 0 -127 c0 -117 2 -129 23 -151 12 -14 17 -22
10 -18 -7 4 -13 -4 -16 -21 -3 -23 -4 -22 -3 5 1 17 -2 32 -6 32 -4 0 -8 -30
-8 -66 0 -41 4 -63 10 -59 6 3 10 1 10 -4 0 -6 -4 -11 -9 -11 -4 0 -9 -64 -10
-141 l-2 -142 30 -26 c28 -25 29 -30 35 -131 3 -58 6 -133 6 -167 0 -59 2 -63
29 -77 l29 -15 1 191 c1 106 4 194 6 197 3 2 5 -87 5 -199 0 -112 2 -201 5
-199 2 3 5 71 6 152 0 81 4 147 7 147 4 0 15 -7 25 -14 14 -11 17 -31 17 -132
0 -161 5 -186 41 -206 l29 -17 2 212 2 212 6 -220 c5 -201 6 -209 9 -85 2 74
3 141 2 148 -2 10 2 11 19 2 20 -11 21 -18 19 -162 -1 -113 2 -153 12 -159 12
-7 22 -39 13 -39 -3 0 -63 27 -134 59 l-129 59 -13 -29 c-12 -28 -25 -34 -58
-29 -22 3 -24 8 -10 25 11 13 10 19 -5 35 -17 19 -19 19 -31 2 -8 -10 -13 -12
-14 -5 0 7 -3 12 -7 12 -22 -4 -32 3 -27 16 8 19 -11 20 -28 1 -11 -11 -15
-11 -26 3 -10 12 -15 13 -18 3 -6 -13 -24 -7 -24 9 0 6 5 7 11 3 8 -4 9 0 4
15 -7 24 12 30 21 7 3 -8 12 -12 19 -9 11 4 10 9 -5 26 -25 27 -25 30 5 44 14
6 25 7 25 2 0 -5 5 -9 11 -9 6 0 8 9 4 21 -4 12 -8 28 -9 35 -3 20 -16 30 -16
11 0 -20 -19 -32 -31 -20 -11 11 -11 50 -7 520 2 253 7 393 13 393 6 0 5 4 -2
8 -6 4 -13 25 -16 47 -2 22 -5 -149 -7 -380z m4733 170 c-12 -9 -29 -22 -37
-30 -27 -28 -30 -15 -3 13 15 16 24 32 20 36 -4 4 1 4 11 0 15 -6 17 -4 11 7
-6 11 -5 12 6 1 11 -10 10 -15 -8 -27z m17 -40 c0 -19 -4 -23 -17 -18 -10 4
-14 2 -10 -5 4 -6 -6 -20 -22 -31 l-28 -21 0 23 c0 13 13 33 35 50 19 15 37
27 39 27 1 0 3 -11 3 -25z m-3 -77 c-3 -7 -5 -2 -5 12 0 14 2 19 5 13 2 -7 2
-19 0 -25z m-4560 -30 c-2 -13 -4 -5 -4 17 -1 22 1 32 4 23 2 -10 2 -28 0 -40z
m4538 20 c-4 -21 -21 -38 -39 -38 -6 0 -1 7 10 15 16 13 16 14 2 9 -10 -3 -18
-3 -18 1 0 9 31 34 42 35 4 0 5 -10 3 -22z m-4288 -35 c-3 -10 -5 -2 -5 17 0
19 2 27 5 18 2 -10 2 -26 0 -35z m4296 -46 c-14 -17 -14 -19 -1 -9 21 17 24
10 27 -73 l2 -70 -45 -32 -45 -32 -4 27 c-4 27 -4 27 -6 -3 -2 -26 -13 -37
-78 -80 -42 -27 -86 -50 -97 -50 -12 0 -20 -6 -18 -13 1 -8 -2 -10 -8 -7 -6 4
-19 1 -28 -7 -28 -24 -75 -51 -68 -40 3 6 1 14 -5 18 -7 4 -1 15 17 31 l29 24
-27 -16 c-15 -9 -33 -13 -39 -9 -9 5 -10 2 -6 -9 6 -17 -7 -24 -17 -9 -8 14
51 65 65 57 8 -5 10 -4 5 3 -7 12 119 111 142 112 6 0 12 5 12 10 0 6 6 10 14
10 8 0 16 4 18 8 4 10 73 62 81 62 4 0 7 -14 7 -32 0 -17 3 -29 6 -25 3 3 6
28 6 56 -1 28 3 53 9 56 5 4 5 13 -1 25 -8 15 -3 24 28 50 35 29 37 30 40 9 2
-11 -5 -30 -15 -42z m-4348 -7 c10 -11 16 -20 13 -20 -3 0 -13 9 -23 20 -10
11 -16 20 -13 20 3 0 13 -9 23 -20z m-8 -87 c-2 -16 -4 -5 -4 22 0 28 2 40 4
28 2 -13 2 -35 0 -50z m2830 -66 c-2 -23 -3 -1 -3 48 0 50 1 68 3 42 2 -26 2
-67 0 -90z m-2850 91 c-3 -7 -5 -2 -5 12 0 14 2 19 5 13 2 -7 2 -19 0 -25z
m70 -145 c-2 -32 -3 -6 -3 57 0 63 1 89 3 58 2 -32 2 -84 0 -115z m53 35 c0
-38 -4 -57 -9 -48 -7 14 -3 110 5 110 2 0 4 -28 4 -62z m3881 1 c-25 -24 -29
-4 -4 23 11 13 19 15 21 8 2 -6 -5 -20 -17 -31z m39 -24 c0 -2 -14 -12 -31
-21 -24 -12 -30 -12 -27 -2 3 7 10 13 16 13 5 0 14 3 18 8 8 8 24 10 24 2z
m-1183 -87 c-2 -18 -4 -6 -4 27 0 33 2 48 4 33 2 -15 2 -42 0 -60z m1223 63
c-1 -3 -18 -18 -40 -33 -35 -25 -39 -25 -37 -7 1 17 8 23 23 17 3 -2 9 4 14
13 9 15 40 23 40 10z m274 -19 c-2 -15 -8 -39 -13 -52 -9 -24 -10 -23 -12 10
-1 34 -2 33 -14 -15 -11 -43 -13 -46 -15 -20 l-3 30 -7 -35 c-7 -32 -7 -33 -9
-7 -1 38 -21 24 -21 -14 0 -18 -4 -28 -10 -24 -5 3 -10 0 -11 -7 -1 -7 -5 -2
-9 12 -8 25 -8 25 -15 -7 -8 -35 -24 -45 -26 -15 -1 9 -5 4 -9 -13 -4 -16 -8
-22 -9 -12 -1 25 -21 11 -21 -16 0 -20 0 -20 -16 -1 -12 15 -15 16 -10 2 6
-19 -10 -34 -39 -40 -11 -1 -30 -14 -42 -27 -21 -22 -23 -22 -23 -5 -1 18 -1
18 -12 -1 -14 -24 -29 -35 -40 -29 -4 3 -8 -1 -8 -9 0 -8 -6 -17 -14 -20 -10
-4 -13 4 -12 31 1 29 5 36 19 34 10 -2 17 3 17 12 0 9 10 21 22 27 12 6 31 20
41 30 11 10 25 15 31 12 6 -3 8 -3 4 2 -4 4 47 44 115 87 67 44 131 86 142 93
29 20 33 18 29 -13z m-4427 -4 c-3 -8 -6 -5 -6 6 -1 11 2 17 5 13 3 -3 4 -12
1 -19z m3736 -5 c-18 -2 -48 -2 -65 0 -18 2 -4 4 32 4 36 0 50 -2 33 -4z m323
-39 c-4 -9 -9 -15 -11 -12 -3 3 -3 13 1 22 4 9 9 15 11 12 3 -3 3 -13 -1 -22z
m-3919 -6 c-3 -8 -6 -5 -6 6 -1 11 2 17 5 13 3 -3 4 -12 1 -19z m3232 -260
c-1 -182 -3 -222 -11 -183 -9 46 -2 415 8 415 2 0 3 -105 3 -232z m-442 190
c-3 -8 -6 -5 -6 6 -1 11 2 17 5 13 3 -3 4 -12 1 -19z m-1373 -13 c4 -10 -1
-15 -14 -15 -13 0 -18 5 -14 15 4 8 10 15 14 15 4 0 10 -7 14 -15z m2441 5 c3
-5 1 -10 -4 -10 -6 0 -11 5 -11 10 0 6 2 10 4 10 3 0 8 -4 11 -10z m69 -15
c-3 -7 -12 -11 -20 -8 -9 3 -14 0 -12 -8 2 -8 -4 -13 -14 -13 -10 1 -18 -3
-18 -10 0 -6 -9 -17 -20 -24 -18 -11 -20 -10 -20 9 0 11 4 18 9 15 5 -4 11 -3
13 2 1 4 19 19 38 34 35 27 53 29 44 3z m-2564 5 c0 -5 -7 -10 -16 -10 -8 0
-12 5 -9 10 3 6 10 10 16 10 5 0 9 -4 9 -10z m2470 -10 c0 -5 -5 -10 -11 -10
-5 0 -7 5 -4 10 3 6 8 10 11 10 2 0 4 -4 4 -10z m318 -40 c-5 -15 -108 -72
-108 -60 0 10 88 69 103 70 5 0 7 -5 5 -10z m-2614 -22 c-3 -4 -9 -8 -15 -8
-5 0 -9 4 -9 8 0 5 7 9 15 9 8 0 12 -4 9 -9z m271 2 c-3 -5 -11 -10 -16 -10
-6 0 -7 5 -4 10 3 6 11 10 16 10 6 0 7 -4 4 -10z m1996 -23 c-8 -8 -11 -7 -11
4 0 20 13 34 18 19 3 -7 -1 -17 -7 -23z m-1644 6 c5 3 10 -3 10 -14 1 -11 -2
-17 -7 -14 -4 3 -6 -3 -4 -13 4 -15 -2 -17 -45 -17 -53 -1 -71 18 -29 28 12 4
19 9 15 13 -4 4 3 12 16 19 13 7 25 8 28 2 4 -5 11 -7 16 -4z m1933 -36 c0 -7
-26 -26 -57 -42 -32 -17 -60 -33 -63 -36 -3 -4 -26 -17 -52 -30 -25 -13 -77
-41 -114 -61 -37 -21 -69 -36 -71 -34 -4 3 106 74 137 89 8 4 60 34 115 67 55
33 101 60 103 60 1 0 2 -6 2 -13z m-240 -36 c0 -25 -5 -41 -15 -45 -12 -4 -15
3 -15 30 0 21 4 33 10 29 6 -3 10 1 10 9 0 9 2 16 5 16 3 0 5 -18 5 -39z m180
35 c0 -8 -174 -106 -188 -106 -12 0 13 18 63 45 28 15 61 36 75 46 23 17 50
25 50 15z m-2046 -26 c-5 -5 -50 -12 -99 -14 l-90 -5 95 13 c52 7 97 14 100
15 2 0 0 -3 -6 -9z m86 -20 c0 -6 -12 -10 -26 -10 -21 0 -24 3 -15 13 6 8 7
17 3 22 -4 4 3 2 16 -4 12 -6 22 -16 22 -21z m604 -7 c-9 -20 -23 -47 -32 -61
-9 -14 -15 -37 -13 -50 2 -22 0 -24 -23 -20 -21 4 -24 2 -16 -12 5 -9 16 -22
24 -30 9 -7 16 -19 16 -27 0 -7 -38 30 -84 84 -50 59 -79 101 -73 105 14 9 29
-1 21 -13 -3 -6 3 -5 14 2 29 18 52 5 52 -31 0 -18 4 -29 10 -25 6 3 10 19 10
35 0 34 19 50 32 26 13 -24 24 -20 48 19 28 45 33 45 14 -2z m775 17 c-14 -4
-39 -15 -55 -25 l-29 -17 28 26 c17 16 39 26 55 25 l27 -1 -26 -8z m-1456 -25
c-9 -15 -11 -15 -24 1 -12 16 -12 17 4 11 10 -4 17 -2 17 5 0 6 3 9 6 5 3 -3
2 -13 -3 -22z m462 15 c8 -13 -5 -13 -25 0 -13 8 -13 10 2 10 9 0 20 -4 23
-10z m1352 -37 c-3 -10 -5 -2 -5 17 0 19 2 27 5 18 2 -10 2 -26 0 -35z m-2064
30 c-7 -2 -19 -2 -25 0 -7 3 -2 5 12 5 14 0 19 -2 13 -5z m1687 -15 c0 -7 -5
-20 -10 -28 -7 -12 -12 -12 -21 -3 -9 9 -9 16 1 28 15 18 30 20 30 3z m858
-20 c-3 -36 -25 -50 -238 -147 -219 -100 -272 -123 -277 -117 -3 3 6 17 20 30
14 13 28 21 31 18 3 -3 6 1 6 8 0 7 3 11 6 8 3 -3 17 5 31 18 14 13 30 24 35
24 5 0 46 21 91 47 111 63 269 142 285 143 9 0 12 -11 10 -32z m162 17 c-14
-8 -29 -14 -35 -14 -5 0 1 6 15 14 14 8 30 14 35 14 6 0 -1 -6 -15 -14z m84 2
c17 -12 14 -14 -25 -14 -29 0 -34 1 -15 4 22 4 26 7 15 14 -8 5 -9 9 -3 9 5 0
18 -6 28 -13z m-2786 -58 l37 0 -35 -12 c-40 -14 -49 -5 -48 48 l1 30 4 -32
c4 -30 7 -33 41 -34z m672 51 c0 -5 -2 -10 -4 -10 -3 0 -8 5 -11 10 -3 6 -1
10 4 10 6 0 11 -4 11 -10z m29 -26 c9 6 46 -27 84 -72 33 -41 35 -58 5 -38
-13 8 -54 24 -93 35 -77 24 -149 59 -125 62 8 1 22 3 30 4 8 1 30 3 48 4 26 1
32 5 33 24 l2 22 4 -23 c2 -12 8 -20 12 -18z m-479 16 c0 -5 -2 -10 -4 -10 -3
0 -8 5 -11 10 -3 6 -1 10 4 10 6 0 11 -4 11 -10z m-423 -41 c-3 -11 -1 -19 4
-19 5 0 9 5 9 10 0 6 5 10 10 10 6 0 10 -18 10 -40 0 -34 -4 -42 -26 -50 -14
-6 -41 -10 -60 -10 -33 0 -34 1 -34 40 0 33 3 40 20 40 11 0 20 5 20 11 0 15
32 39 43 32 5 -3 7 -14 4 -24z m2169 -6 c-11 -11 -17 4 -9 23 7 18 8 18 11 1
2 -10 1 -21 -2 -24z m-1770 14 c4 -4 -10 -8 -32 -8 -27 -1 -31 -3 -14 -6 14
-3 30 -9 35 -15 7 -8 6 -9 -2 -4 -7 4 -13 5 -13 2 0 -2 12 -11 28 -18 19 -9
44 -11 82 -6 59 7 74 1 68 -28 -3 -16 -16 -20 -83 -25 l-80 -5 70 -2 c39 -1
77 -7 85 -12 17 -11 -258 -13 -329 -2 -71 11 -60 27 17 25 38 -1 75 3 83 8 11
7 8 9 -9 9 -38 0 -23 34 18 41 34 6 34 6 -10 8 l-45 3 30 13 c17 8 26 15 20
16 -17 2 39 17 57 15 10 -1 21 -5 24 -9z m34 3 c0 -5 -4 -10 -10 -10 -5 0 -10
5 -10 10 0 6 5 10 10 10 6 0 10 -4 10 -10z m1850 2 c0 -5 -12 -14 -27 -21
l-28 -11 24 20 c26 22 31 24 31 12z m570 -28 c0 -13 -4 -24 -10 -24 -5 0 -10
14 -10 31 0 17 4 28 10 24 6 -3 10 -17 10 -31z m-2710 0 c0 -19 -7 -28 -31
-36 -16 -6 -28 -12 -26 -14 2 -3 16 0 31 5 24 10 26 8 26 -14 0 -22 -4 -25
-35 -25 l-35 0 0 53 0 52 35 2 c32 3 35 0 35 -23z m145 16 c-3 -5 -16 -10 -28
-10 -18 0 -19 2 -7 10 20 13 43 13 35 0z m952 -172 c-2 -35 -3 -7 -3 62 0 69
1 97 3 63 2 -35 2 -91 0 -125z m1563 172 c0 -5 -4 -10 -10 -10 -5 0 -10 5 -10
10 0 6 5 10 10 10 6 0 10 -4 10 -10z m-2016 -19 l40 -19 -40 -11 c-21 -6 -64
-12 -94 -13 -36 -1 -44 -3 -22 -5 20 -3 32 -10 32 -19 0 -12 -14 -15 -70 -13
-65 2 -70 4 -70 24 0 33 24 48 83 49 39 2 54 -2 59 -13 5 -12 7 -11 7 6 1 18
12 30 31 32 3 0 23 -8 44 -18z m-549 -11 c-3 -5 -17 -10 -31 -10 -14 0 -22 4
-19 10 3 6 17 10 31 10 14 0 22 -4 19 -10z m1971 -5 c-11 -8 -22 -12 -25 -9
-6 6 19 24 34 24 6 -1 1 -7 -9 -15z m-2849 -42 c-3 -10 -5 -4 -5 12 0 17 2 24
5 18 2 -7 2 -21 0 -30z m52 30 c-4 -27 3 -42 16 -37 8 4 15 1 15 -4 0 -6 -9
-9 -20 -7 -14 3 -24 -3 -30 -18 -7 -17 -8 -13 -5 18 2 22 4 43 4 48 1 4 6 7
11 7 6 0 9 -3 9 -7z m758 -15 c-3 -8 -6 -5 -6 6 -1 11 2 17 5 13 3 -3 4 -12 1
-19z m2109 -4 c-22 -16 -36 -18 -36 -6 0 11 43 32 50 25 3 -3 -4 -11 -14 -19z
m-1426 -6 c0 -10 2 -10 8 -2 5 9 10 8 19 -2 18 -19 7 -22 -79 -20 -79 1 -107
16 -53 27 54 12 105 10 105 -3z m700 9 c0 -2 -10 -12 -22 -23 l-23 -19 19 23
c18 21 26 27 26 19z m1300 -36 c0 -23 -5 -41 -13 -44 -10 -4 -13 5 -12 36 3
50 2 47 15 47 6 0 10 -18 10 -39z m-590 -1 c0 -11 -52 -40 -72 -40 -7 0 5 11
27 25 47 28 45 28 45 15z m-4329 -20 c-8 -4 -21 -5 -30 -2 -12 5 -10 8 9 12
29 8 40 3 21 -10z m2859 0 c-12 -8 -12 -10 5 -11 l20 0 -20 -9 c-28 -12 -37
-12 -30 0 4 6 -27 10 -85 10 -58 0 -89 4 -85 10 3 6 51 10 108 10 70 0 97 -3
87 -10z m1500 2 c0 -5 -11 -14 -25 -20 -31 -14 -33 1 -2 16 28 14 27 13 27 4z
m-2163 -8 c-3 -3 -12 -4 -19 -1 -8 3 -5 6 6 6 11 1 17 -2 13 -5z m1959 -9
c-11 -8 -25 -15 -30 -15 -6 1 0 7 14 15 32 19 40 18 16 0z m-3942 -21 c-1 -16
20 -32 35 -26 9 3 12 1 7 -6 -3 -6 -2 -13 3 -17 6 -3 7 -13 4 -23 -3 -9 -3
-14 1 -10 4 3 35 -6 69 -22 34 -15 71 -31 81 -34 10 -4 17 -9 14 -12 -3 -2
-45 11 -93 31 -48 19 -91 35 -96 35 -5 0 -9 -11 -9 -25 0 -15 -6 -25 -14 -25
-11 0 -13 9 -9 36 5 31 2 39 -23 61 -16 13 -24 22 -17 19 7 -4 9 1 6 14 -4 17
-1 20 18 17 13 -2 24 -8 23 -13z m1234 -31 l-3 -38 143 0 c78 0 142 -3 142 -7
0 -3 9 -4 20 -1 17 4 20 0 20 -25 0 -24 -5 -31 -25 -34 -25 -5 -62 22 -48 35
3 4 -26 7 -65 7 -57 0 -72 -3 -72 -15 0 -8 -8 -15 -18 -15 -10 0 -24 -6 -31
-12 -11 -10 -13 -10 -7 0 5 8 0 12 -13 12 -12 0 -21 -6 -21 -12 -1 -7 -9 -3
-19 8 -17 22 -18 21 -33 -57 -8 -43 -11 -84 -6 -91 4 -7 8 -25 8 -40 0 -21 4
-25 20 -21 30 8 28 68 -2 78 -21 6 -19 8 17 20 22 7 34 14 27 14 -7 1 -20 7
-27 15 -19 19 -1 26 65 26 39 0 49 -4 53 -20 4 -17 8 -18 30 -7 21 10 23 13
10 18 -15 5 -15 6 0 12 11 4 22 -2 33 -16 10 -14 14 -16 11 -5 -7 20 11 28 68
28 l44 0 1 -157 c0 -150 6 -229 29 -388 6 -38 10 -93 11 -122 0 -45 -2 -51
-19 -46 -13 3 -20 -2 -24 -17 -6 -24 20 -41 33 -21 5 9 9 5 13 -11 14 -50 10
-58 -34 -58 l-40 0 2 100 c1 55 6 100 11 100 4 0 9 -17 9 -37 2 -31 3 -33 6
-10 2 15 9 27 15 27 5 0 8 -6 5 -12 -2 -7 -1 -22 4 -33 5 -14 8 -3 7 32 l-1
52 -61 17 c-50 13 -68 24 -98 61 l-38 44 -1 -208 c0 -114 -4 -217 -9 -228 -8
-18 -9 -18 -10 5 -1 23 -2 23 -10 5 -10 -23 -10 -22 -16 22 -4 24 -1 32 13 36
10 3 3 5 -14 6 -40 1 -45 26 -6 29 38 3 42 12 5 12 -39 0 -50 16 -17 24 22 6
25 11 23 46 -1 22 -5 40 -10 40 -5 0 -7 4 -4 9 3 5 -1 11 -9 15 -11 4 -15 23
-15 81 0 73 1 75 25 75 14 0 25 -4 25 -10 0 -5 -7 -10 -16 -10 -8 0 -12 -5 -9
-10 4 -6 10 -8 15 -5 4 3 9 -50 9 -117 1 -67 4 -124 6 -127 3 -2 5 67 5 155
l-1 159 -82 28 c-133 46 -127 46 -127 -4 0 -46 -13 -79 -23 -61 -4 5 -2 47 3
93 5 46 11 119 15 162 3 42 10 98 15 125 6 26 12 56 14 67 9 58 50 245 53 245
3 0 3 -17 1 -37z m2837 27 c-3 -5 -12 -10 -18 -10 -7 0 -6 4 3 10 19 12 23 12
15 0z m643 -53 c-2 -21 -9 -33 -20 -35 -15 -3 -18 4 -18 35 0 45 19 72 33 48
4 -9 7 -30 5 -48z m-2345 46 c-35 -2 -91 -2 -125 0 -35 2 -7 3 62 3 69 0 97
-1 63 -3z m235 -7 c-7 -8 -15 -12 -17 -11 -5 6 10 25 20 25 5 0 4 -6 -3 -14z
m692 11 c0 -2 -10 -12 -22 -23 l-23 -19 19 23 c18 21 26 27 26 19z m243 -316
c-2 -2 -3 3 -3 13 0 13 -5 16 -22 10 -21 -6 -22 -5 -8 11 15 19 16 28 21 185
2 100 3 98 9 -55 4 -88 5 -162 3 -164z m-3130 294 c4 -8 3 -16 -1 -19 -4 -3
-9 4 -9 15 -2 23 3 25 10 4z m2323 8 c-10 -11 -37 -12 -30 -2 3 5 12 9 21 9 9
0 13 -3 9 -7z m184 -18 c0 -8 -2 -15 -4 -15 -2 0 -6 7 -10 15 -3 8 -1 15 4 15
6 0 10 -7 10 -15z m1740 -26 c0 -22 -4 -38 -8 -35 -8 5 -4 76 4 76 2 0 4 -18
4 -41z m-2132 18 c45 -2 82 0 82 4 0 5 14 8 30 7 42 -3 39 -28 -4 -28 -40 0
-66 -8 -66 -22 0 -5 5 -6 10 -3 6 3 10 1 10 -6 0 -7 7 -4 15 7 17 22 21 3 5
-27 -12 -21 -40 -26 -40 -7 0 9 -3 9 -12 0 -7 -7 -21 -12 -33 -12 -12 0 -26 5
-33 12 -9 9 -12 9 -12 0 0 -10 -45 -12 -187 -10 l-188 3 0 33 c0 17 -3 32 -7
32 -4 0 -8 -15 -10 -32 l-3 -33 -235 -2 c-156 -2 -230 0 -220 7 12 8 11 10 -7
10 -16 0 -20 5 -16 20 7 26 14 30 60 36 84 10 117 12 93 7 -14 -2 -29 -9 -35
-15 -11 -10 38 -1 65 13 9 4 65 8 124 8 60 1 111 3 113 5 5 4 391 -1 501 -7z
m270 -10 c20 5 23 1 22 -24 -1 -11 -52 -3 -67 9 -20 16 -15 30 5 19 10 -6 28
-7 40 -4z m-1620 -49 c-2 -23 -8 -32 -25 -34 -20 -3 -23 0 -23 31 0 31 3 35
26 35 22 0 25 -4 22 -32z m1490 -150 c-3 -101 -4 -175 -1 -165 10 36 23 15 23
-36 0 -41 -5 -58 -20 -72 -26 -24 -25 -33 6 -41 l25 -6 -31 -20 c-20 -12 -30
-24 -26 -33 3 -8 1 -17 -3 -19 -4 -3 -14 -40 -20 -83 -7 -43 -16 -99 -20 -125
-9 -51 7 -168 19 -148 4 7 5 22 2 34 -5 18 -2 17 26 -9 18 -16 35 -29 40 -28
4 1 10 19 13 40 l6 38 2 -37 c0 -21 6 -38 12 -38 5 0 8 -4 5 -8 -7 -12 98 -9
106 3 4 6 8 1 9 -10 0 -16 3 -14 14 10 8 17 15 26 17 20 1 -5 5 40 8 100 l6
110 3 -110 c2 -67 6 -100 10 -85 4 14 6 54 4 90 -1 36 1 79 6 95 8 25 10 18
12 -45 2 -74 2 -74 10 32 8 116 12 130 37 126 10 -1 23 1 30 6 10 6 13 -33 12
-199 l-2 -208 -27 -23 c-36 -30 -73 -44 -117 -44 -19 0 -34 -5 -34 -10 0 -7
-6 -7 -20 0 -15 8 -20 8 -20 -2 0 -9 -3 -9 -11 2 -7 10 -12 11 -15 4 -3 -7
-13 -10 -22 -8 -14 4 -117 -4 -262 -21 -19 -2 -102 -7 -185 -11 -98 -4 -175
-13 -221 -25 -84 -23 -94 -23 -68 -5 17 13 14 14 -24 5 -54 -12 -255 -7 -264
6 -4 6 3 13 15 16 21 6 21 7 -7 18 -17 7 -33 8 -40 2 -6 -5 -22 -12 -36 -16
-20 -6 -23 -5 -13 6 16 16 -1 39 -30 39 -20 0 -20 0 -1 -15 17 -13 17 -14 2
-15 -10 0 -18 2 -18 4 0 2 -3 11 -6 19 -4 10 5 16 30 21 31 6 36 11 36 36 0
16 5 32 10 35 14 9 7 62 -13 108 -12 24 -19 76 -23 150 -5 115 -17 224 -30
265 -4 13 -1 48 6 77 10 40 10 75 4 134 -5 44 -6 77 -2 75 4 -3 8 13 8 35 0
29 5 41 18 45 14 4 943 11 980 7 24 -2 3 -90 -34 -142 -19 -25 -34 -55 -33
-65 0 -18 1 -18 9 1 12 28 13 -57 1 -107 -5 -21 -5 -36 -1 -33 5 3 11 1 15 -5
3 -5 1 -10 -6 -10 -7 0 -28 -14 -46 -32 -24 -24 -33 -41 -33 -66 0 -21 4 -31
11 -26 7 4 9 -1 7 -12 -2 -11 -11 -18 -21 -18 -13 1 -17 -7 -17 -38 0 -34 -4
-41 -28 -50 -24 -9 -27 -15 -24 -43 3 -25 -1 -35 -21 -48 -29 -19 -40 -67 -19
-87 13 -11 14 -8 10 23 -4 39 6 51 15 16 4 -16 12 -20 44 -18 61 4 112 -15
113 -43 0 -4 -10 -9 -22 -11 -20 -4 -20 -4 4 -6 19 -1 28 -7 31 -23 3 -13 4
13 4 57 0 45 2 85 5 91 4 5 11 48 17 94 7 47 18 103 25 125 8 22 18 103 22
180 4 77 8 151 10 165 1 14 3 69 3 123 1 66 5 97 13 97 8 0 10 -48 6 -182z
m437 33 c-4 -69 -9 -128 -11 -130 -2 -2 -4 57 -4 133 0 98 3 135 11 130 8 -4
9 -44 4 -133z m645 134 c0 -2 -13 -11 -30 -20 -38 -19 -40 -11 -2 9 31 17 32
18 32 11z m-410 -9 c0 -2 -7 -7 -16 -10 -8 -3 -12 -2 -9 4 6 10 25 14 25 6z
m426 -11 c-11 -8 -25 -15 -30 -15 -6 1 0 7 14 15 32 19 40 18 16 0z m-2333 -2
c-7 -2 -21 -2 -30 0 -10 3 -4 5 12 5 17 0 24 -2 18 -5z m3289 -43 c3 -47 -4
-60 -30 -60 -9 0 -14 88 -7 101 4 5 12 9 20 9 9 0 14 -16 17 -50z m-1892 15
c13 -16 11 -17 -32 -19 -42 -2 -34 30 8 33 6 1 17 -6 24 -14z m171 -80 c4 -22
5 -87 2 -145 -6 -133 -6 -119 3 -159 5 -23 4 -32 -3 -28 -6 4 -16 0 -23 -8
-13 -16 -42 -20 -54 -8 -3 4 4 13 16 20 13 7 18 12 11 13 -7 0 -10 6 -7 14 3
8 0 17 -5 21 -6 3 -9 11 -6 16 8 12 -1 11 -28 -2 -18 -8 -17 -5 6 15 23 22 27
33 27 81 0 54 0 55 30 55 20 0 30 5 30 15 0 10 -10 15 -30 15 -30 0 -30 0 -30
58 0 65 5 74 34 70 16 -2 22 -13 27 -43z m1061 15 c3 -16 1 -30 -4 -30 -4 0
-8 14 -8 30 0 17 2 30 4 30 2 0 6 -13 8 -30z m778 15 c0 -8 -9 -15 -20 -15
-25 0 -26 17 -2 23 9 3 18 5 20 6 1 0 2 -6 2 -14z m45 -7 c6 -4 2 -8 -7 -8
-10 0 -18 7 -18 17 0 9 3 12 8 7 4 -5 12 -12 17 -16z m-1825 -140 l-20 -19 0
71 c0 56 3 70 15 70 8 0 16 8 17 18 1 9 4 -14 5 -52 3 -59 1 -71 -17 -88z
m1730 141 c0 -5 -9 -9 -20 -9 -11 0 -20 4 -20 8 0 4 9 8 20 9 11 1 20 -2 20
-8z m-1972 -21 c19 -19 14 -28 -18 -28 -18 0 -30 5 -30 13 0 28 27 36 48 15z
m767 -18 c-3 -5 -12 -10 -18 -10 -7 0 -6 4 3 10 19 12 23 12 15 0z m1261 -40
c0 -46 -2 -50 -23 -50 -21 0 -23 4 -23 50 0 45 2 50 23 50 20 0 22 -5 23 -50z
m44 0 c0 -38 -4 -50 -15 -50 -11 0 -15 12 -15 50 0 38 4 50 15 50 11 0 15 -12
15 -50z m-4425 -20 c4 -6 -11 -10 -37 -10 -31 0 -39 3 -28 10 20 13 57 13 65
0z m2375 -17 c0 -13 -6 -15 -35 -15 -36 0 -45 3 -45 17 0 11 10 14 40 13 26
-1 40 -6 40 -15z m-2433 -9 c-3 -3 -12 -4 -19 -1 -8 3 -5 6 6 6 11 1 17 -2 13
-5z m1 -169 l-3 -155 72 0 72 0 6 -34 c4 -18 5 -44 2 -57 -3 -15 -5 -8 -6 17
-1 38 -20 72 -33 59 -3 -3 -46 -7 -97 -8 -75 -3 -91 -1 -86 11 3 7 6 37 6 65
1 46 2 48 8 17 3 -19 13 -36 21 -38 12 -2 15 12 16 75 3 181 4 203 15 203 7 0
9 -50 7 -155z m2509 130 c-7 -16 -47 -21 -47 -5 0 5 6 7 14 4 7 -3 16 3 20 12
4 9 9 14 12 11 4 -3 4 -13 1 -22z m522 21 c-10 -9 -69 -36 -69 -32 0 7 52 35
64 36 5 0 7 -2 5 -4z m1409 -53 c3 -51 2 -53 -22 -53 -25 0 -26 3 -26 56 0 52
1 55 23 52 19 -3 22 -10 25 -55z m-2088 27 c0 -5 -6 -10 -14 -10 -8 0 -18 5
-21 10 -3 6 3 10 14 10 12 0 21 -4 21 -10z m703 -6 c-3 -7 -18 -17 -34 -23
-24 -8 -29 -7 -29 6 0 9 6 13 15 9 8 -3 14 -2 14 2 -2 14 1 18 20 18 11 0 17
-6 14 -12z m1157 -44 c0 -27 -4 -50 -10 -50 -11 0 -14 83 -3 93 12 12 13 8 13
-43z m-1523 8 c-3 -7 -5 -2 -5 12 0 14 2 19 5 13 2 -7 2 -19 0 -25z m-320
-145 c-2 -32 -3 -6 -3 57 0 63 1 89 3 58 2 -32 2 -84 0 -115z m-1694 132 c26
-11 47 -23 47 -28 0 -7 -98 38 -110 51 -6 6 1 3 63 -23z m1754 -82 c-2 -21 -4
-4 -4 37 0 41 2 58 4 38 2 -21 2 -55 0 -75z m540 85 c-3 -8 -6 -5 -6 6 -1 11
2 17 5 13 3 -3 4 -12 1 -19z m-2342 -13 l50 -24 -57 0 c-55 -1 -58 0 -58 24 0
30 2 30 65 0z m2325 15 c0 -5 -5 -10 -11 -10 -5 0 -7 5 -4 10 3 6 8 10 11 10
2 0 4 -4 4 -10z m-36 -24 c-3 -9 -9 -14 -14 -11 -4 2 -12 -7 -19 -22 -6 -14
-13 -24 -14 -22 -2 2 -9 13 -17 23 -14 18 -13 19 3 13 14 -5 20 -2 24 13 3 11
9 18 13 15 5 -3 12 0 15 6 10 15 17 5 9 -15z m-597 -93 c-2 -21 -4 -4 -4 37 0
41 2 58 4 38 2 -21 2 -55 0 -75z m1410 45 c-2 -13 -4 -3 -4 22 0 25 2 35 4 23
2 -13 2 -33 0 -45z m70 0 c-2 -13 -4 -3 -4 22 0 25 2 35 4 23 2 -13 2 -33 0
-45z m-27 17 c0 -19 -4 -35 -10 -35 -5 0 -10 16 -10 35 0 19 5 35 10 35 6 0
10 -16 10 -35z m-1593 -22 c-3 -10 -5 -2 -5 17 0 19 2 27 5 18 2 -10 2 -26 0
-35z m1480 -5 c-3 -7 -5 -2 -5 12 0 14 2 19 5 13 2 -7 2 -19 0 -25z m39 -5
c-11 -11 -17 4 -9 23 7 18 8 18 11 1 2 -10 1 -21 -2 -24z m-866 7 c0 -4 -9 -6
-21 -3 -15 4 -17 8 -8 14 14 8 29 3 29 -11z m1380 -25 c0 -25 -4 -45 -10 -45
-5 0 -10 20 -10 45 0 25 5 45 10 45 6 0 10 -20 10 -45z m-3800 21 c0 -8 -7
-16 -15 -20 -8 -3 -15 -11 -14 -18 0 -10 2 -10 6 0 8 19 22 14 20 -8 -1 -16
-8 -20 -42 -20 -40 0 -40 0 -42 40 l-1 40 44 0 c31 0 44 -4 44 -14z m300 6 c0
-5 -26 -14 -57 -21 -32 -7 -68 -15 -80 -18 -19 -4 -23 -1 -23 21 0 26 0 26 80
26 44 0 80 -4 80 -8z m1805 -12 c-3 -5 -11 -10 -16 -10 -6 0 -7 5 -4 10 3 6
11 10 16 10 6 0 7 -4 4 -10z m-2448 -9 c31 -9 82 -55 83 -75 0 -16 -77 2 -109
25 -31 23 -42 59 -18 59 6 0 27 -4 44 -9z m3190 -38 c-3 -10 -5 -2 -5 17 0 19
2 27 5 18 2 -10 2 -26 0 -35z m50 5 c-3 -7 -5 -2 -5 12 0 14 2 19 5 13 2 -7 2
-19 0 -25z m360 0 c2 -12 0 -29 -3 -38 -5 -11 -9 -7 -14 15 -6 31 -2 60 8 50
3 -3 7 -15 9 -27z m33 -9 c0 -24 -4 -38 -10 -34 -17 10 -11 75 7 75 2 0 3 -18
3 -41z m27 -21 c-2 -13 -4 -3 -4 22 0 25 2 35 4 23 2 -13 2 -33 0 -45z m43 22
c0 -22 -4 -40 -10 -40 -5 0 -10 18 -10 40 0 22 5 40 10 40 6 0 10 -18 10 -40z
m27 -22 c-2 -13 -4 -3 -4 22 0 25 2 35 4 23 2 -13 2 -33 0 -45z m-3087 33 c0
-16 -9 -20 -57 -23 -32 -2 -69 -1 -83 3 -20 5 -14 8 35 18 33 7 65 14 70 16
24 8 35 4 35 -14z m2417 -24 l-6 -32 14 31 c12 27 18 30 44 26 l31 -4 0 -294
c0 -189 -4 -294 -10 -294 -5 0 -10 -7 -10 -15 0 -8 -8 -15 -17 -15 -16 0 -16
-2 -3 -10 11 -7 -4 -10 -50 -8 -50 2 -65 7 -65 18 0 8 -4 21 -8 28 -8 12 26
18 79 13 12 -1 32 3 45 8 18 7 5 10 -57 10 l-80 1 -17 93 c-20 108 -22 126
-19 272 2 75 5 105 12 95 8 -13 10 -12 10 4 0 37 23 95 38 98 9 2 29 4 45 5
28 2 29 1 24 -30z m-364 9 c3 -7 -1 -26 -9 -41 -17 -34 -17 -35 1 -35 11 0 15
-14 16 -57 3 -123 -1 -144 -31 -170 -34 -30 -40 -29 -40 10 0 38 -12 59 -30
55 -8 -2 -16 5 -18 16 -5 23 17 66 34 66 12 0 15 15 30 123 5 36 10 47 24 47
10 0 20 -6 23 -14z m-583 -17 c0 -6 -4 -7 -10 -4 -5 3 -10 11 -10 16 0 6 5 7
10 4 6 -3 10 -11 10 -16z m-56 -66 c-10 -7 -20 -10 -23 -7 -3 3 2 11 12 18 9
7 18 26 19 42 1 26 2 26 5 -6 3 -24 0 -38 -13 -47z m193 35 c-3 -7 -5 -2 -5
12 0 14 2 19 5 13 2 -7 2 -19 0 -25z m940 -15 c-3 -10 -5 -2 -5 17 0 19 2 27
5 18 2 -10 2 -26 0 -35z m25 17 c-2 -16 -6 -30 -8 -30 -2 0 -4 14 -4 30 0 17
4 30 8 30 5 0 7 -13 4 -30z m25 -17 c-3 -10 -5 -2 -5 17 0 19 2 27 5 18 2 -10
2 -26 0 -35z m20 0 c-3 -10 -5 -2 -5 17 0 19 2 27 5 18 2 -10 2 -26 0 -35z
m883 -3 c0 -27 -4 -50 -10 -50 -11 0 -14 83 -3 93 12 12 13 8 13 -43z m-3500
21 c0 -37 -18 -71 -35 -65 -8 4 -22 0 -31 -7 -13 -10 -17 -10 -25 2 -8 12 -11
12 -22 -2 -19 -25 -42 -8 -45 33 -2 21 -1 42 3 48 3 5 40 10 81 10 66 0 74 -2
74 -19z m-300 -47 l0 -56 75 4 c86 3 100 -6 23 -16 -62 -7 -199 -7 -180 1 8 3
12 26 12 64 l0 59 35 0 35 0 0 -56z m3257 1 c1 -24 -2 -47 -7 -50 -6 -4 -10
14 -10 44 0 63 14 68 17 6z m32 -2 c-1 -41 -2 -44 -8 -18 -7 28 -4 65 5 65 2
0 3 -21 3 -47z m28 -20 c-2 -16 -4 -5 -4 22 0 28 2 40 4 28 2 -13 2 -35 0 -50z
m43 22 c0 -25 -4 -45 -10 -45 -5 0 -10 20 -10 45 0 25 5 45 10 45 6 0 10 -20
10 -45z m35 -40 c-2 -11 0 -27 5 -35 7 -10 10 4 10 47 0 34 5 65 10 68 6 4 10
-22 10 -71 0 -43 3 -75 6 -71 3 3 6 26 6 51 0 25 3 58 8 73 8 25 8 24 11 -17
l2 -45 6 38 c11 66 26 41 29 -48 2 -69 0 -85 -12 -85 -8 0 -16 12 -19 28 -2
15 -5 -13 -7 -63 -1 -49 -4 -83 -7 -74 -2 9 -15 16 -31 16 -25 0 -28 -3 -24
-29 3 -22 0 -28 -15 -28 -12 0 -19 -7 -19 -20 0 -11 4 -20 8 -20 4 0 8 5 8 12
0 9 3 9 12 0 13 -13 29 -16 26 -4 -3 8 5 12 27 12 18 0 21 -75 4 -86 -8 -5
-10 6 -7 35 2 22 0 41 -4 41 -5 0 -8 -20 -8 -45 0 -48 -19 -64 -21 -17 -1 20
-2 22 -6 7 -7 -28 -23 -43 -23 -22 0 20 -11 22 -28 5 -9 -9 -12 -4 -13 23 -1
23 -3 27 -6 12 -2 -13 -8 -23 -13 -23 -4 0 -11 10 -15 23 -7 20 -8 19 -12 -10
-8 -61 -20 -33 -22 49 -3 113 -11 112 -11 -1 0 -54 -4 -90 -9 -86 -13 8 -14
335 -1 335 6 0 11 -33 12 -77 1 -43 3 -61 5 -40 4 32 7 37 24 32 11 -4 19 -2
19 4 0 6 -9 11 -19 11 -16 0 -19 6 -18 35 2 43 17 47 17 4 0 -17 4 -28 10 -24
6 3 10 17 10 31 0 36 20 29 21 -8 l2 -33 4 30 c5 34 23 59 23 32 0 -9 5 -17
10 -17 6 0 10 30 11 68 1 59 2 63 10 32 5 -19 7 -44 4 -55z m-2945 -41 c0 -61
-4 -93 -10 -89 -11 7 -14 168 -3 178 12 13 13 7 13 -89z m2397 -216 c-1 -57
-3 -11 -3 102 0 113 2 159 3 103 2 -57 2 -149 0 -205z m50 255 c-3 -10 -5 -2
-5 17 0 19 2 27 5 18 2 -10 2 -26 0 -35z m-790 15 c-3 -8 -6 -5 -6 6 -1 11 2
17 5 13 3 -3 4 -12 1 -19z m760 -15 c-3 -10 -5 -4 -5 12 0 17 2 24 5 18 2 -7
2 -21 0 -30z m50 0 c-3 -10 -5 -4 -5 12 0 17 2 24 5 18 2 -7 2 -21 0 -30z
m-3950 11 c-3 -3 -12 -4 -19 -1 -8 3 -5 6 6 6 11 1 17 -2 13 -5z m3997 -9 c3
-8 1 -15 -4 -15 -6 0 -10 7 -10 15 0 8 2 15 4 15 2 0 6 -7 10 -15z m-1236 -37
c28 6 8 -16 -33 -36 l-45 -22 1 43 2 42 7 -35 c5 -24 8 -28 9 -12 0 13 6 20
11 17 6 -4 8 -11 5 -16 -4 -5 2 -6 11 -2 10 4 13 8 7 10 -5 2 -8 16 -5 31 l6
27 6 -25 c4 -14 12 -24 18 -22z m-1128 -184 c0 -153 3 -203 12 -198 7 4 8 3 4
-5 -6 -9 -11 -9 -22 0 -11 9 -14 52 -14 216 0 134 3 202 10 198 6 -4 10 -85
10 -211z m-915 196 c-11 -5 -29 -9 -40 -9 l-20 0 20 9 c11 5 29 9 40 9 l20 0
-20 -9z m2808 -4 c4 -9 -4 -16 -21 -19 -15 -3 -34 -7 -42 -10 -8 -2 -12 -2 -7
0 4 3 7 11 7 19 0 9 4 13 8 10 4 -2 14 -1 22 5 20 12 27 11 33 -5z m404 -48
c-2 -13 -4 -5 -4 17 -1 22 1 32 4 23 2 -10 2 -28 0 -40z m33 17 l2 30 8 -30 8
-30 1 34 c1 27 4 31 14 22 8 -6 17 -8 20 -4 4 3 7 -8 7 -25 0 -31 -2 -32 -40
-32 -40 0 -40 0 -39 38 l2 37 7 -35 7 -35 3 30z m-3373 3 c-3 -8 -6 -5 -6 6
-1 11 2 17 5 13 3 -3 4 -12 1 -19z m60 16 c-3 -3 -12 -4 -19 -1 -8 3 -5 6 6 6
11 1 17 -2 13 -5z m99 -118 c4 -52 3 -86 -3 -86 -5 0 -10 17 -11 38 -1 20 -4
69 -7 107 -3 49 -2 63 4 48 6 -12 13 -60 17 -107z m3291 77 c-3 -10 -5 -2 -5
17 0 19 2 27 5 18 2 -10 2 -26 0 -35z m20 10 c-3 -10 -5 -4 -5 12 0 17 2 24 5
18 2 -7 2 -21 0 -30z m-160 -15 c-3 -7 -5 -2 -5 12 0 14 2 19 5 13 2 -7 2 -19
0 -25z m-310 0 c-3 -8 -6 -5 -6 6 -1 11 2 17 5 13 3 -3 4 -12 1 -19z m-113
-96 l6 -43 -21 20 c-18 17 -21 27 -15 63 4 30 3 39 -4 28 -11 -17 -13 -9 -3
16 6 16 9 14 19 -11 6 -17 14 -49 18 -73z m-2877 36 c-2 -13 -4 -5 -4 17 -1
22 1 32 4 23 2 -10 2 -28 0 -40z m1127 36 c11 -29 7 -189 -6 -202 -9 -9 1 -12
45 -12 54 0 57 -1 57 -24 0 -13 3 -31 6 -40 5 -12 -1 -16 -22 -17 -29 -1 -29
-1 -4 -8 44 -12 3 -23 -60 -16 -39 5 -61 12 -64 22 -8 19 3 84 16 100 6 7 9
52 8 100 -1 49 -2 94 -1 101 2 17 18 15 25 -4z m2227 -23 c1 -25 2 -25 9 4 l8
30 1 -31 c1 -38 -28 -58 -31 -21 -1 12 -4 -3 -8 -33 l-7 -55 -1 66 c-2 52 1
66 13 66 9 0 15 -10 16 -26z m53 23 c9 -3 16 -14 16 -23 0 -14 -2 -14 -10 -1
-8 12 -10 11 -10 -7 0 -13 -4 -23 -10 -23 -5 0 -10 14 -10 30 0 32 1 33 24 24z
m524 -12 c2 -7 -3 -12 -12 -12 -9 0 -16 7 -16 16 0 17 22 14 28 -4z m-3848
-12 c0 -11 -7 -20 -15 -20 -8 0 -15 9 -15 20 0 11 7 20 15 20 8 0 15 -9 15
-20z m3230 -5 c0 -14 -4 -25 -10 -25 -5 0 -10 11 -10 25 0 14 5 25 10 25 6 0
10 -11 10 -25z m127 3 c-3 -8 -6 -5 -6 6 -1 11 2 17 5 13 3 -3 4 -12 1 -19z
m-3480 -35 c-3 -10 -5 -2 -5 17 0 19 2 27 5 18 2 -10 2 -26 0 -35z m222 0 c0
-25 -1 -25 -8 -8 -5 11 -7 23 -4 28 8 14 13 7 12 -20z m2158 -35 c-2 -13 -4
-3 -4 22 0 25 2 35 4 23 2 -13 2 -33 0 -45z m972 15 c0 -5 -4 -17 -9 -28 -8
-18 -9 -17 -9 8 -1 15 4 27 9 27 6 0 10 -3 9 -7z m38 -15 c-3 -8 -6 -5 -6 6
-1 11 2 17 5 13 3 -3 4 -12 1 -19z m568 2 c3 -5 1 -10 -4 -10 -6 0 -11 5 -11
10 0 6 2 10 4 10 3 0 8 -4 11 -10z m-1188 -57 c-3 -10 -5 -4 -5 12 0 17 2 24
5 18 2 -7 2 -21 0 -30z m-2720 -25 c-2 -13 -4 -5 -4 17 -1 22 1 32 4 23 2 -10
2 -28 0 -40z m83 17 c0 -16 -6 -25 -15 -25 -9 0 -15 9 -15 25 0 16 6 25 15 25
9 0 15 -9 15 -25z m2645 -42 c7 -17 8 -17 14 -1 5 14 9 15 31 3 l25 -14 -32
-7 c-30 -6 -33 -10 -33 -45 0 -21 -4 -40 -8 -43 -11 -6 -45 101 -37 114 10 16
32 12 40 -7z m-2585 -75 c0 -39 -2 -69 -4 -67 -10 9 -15 149 -5 144 5 -4 9
-38 9 -77z m2880 50 c0 -5 -4 -8 -10 -8 -5 0 -10 10 -10 23 0 18 2 19 10 7 5
-8 10 -18 10 -22z m-2090 -2 c0 -3 -4 -8 -10 -11 -5 -3 -10 -1 -10 4 0 6 5 11
10 11 6 0 10 -2 10 -4z m2100 -63 c0 -21 4 -45 9 -53 15 -22 1 -34 -15 -13
-13 16 -14 16 -8 1 3 -10 1 -18 -5 -18 -6 0 -11 11 -11 24 0 14 -4 28 -10 31
-16 10 -12 43 8 54 28 17 32 13 32 -26z m-2133 -20 c-3 -10 -5 -2 -5 17 0 19
2 27 5 18 2 -10 2 -26 0 -35z m-824 17 c4 -14 0 -20 -13 -20 -10 0 -20 9 -23
20 -4 14 0 20 13 20 10 0 20 -9 23 -20z m-86 -27 c-3 -10 -5 -4 -5 12 0 17 2
24 5 18 2 -7 2 -21 0 -30z m347 15 c5 -9 7 -21 2 -25 -4 -4 -12 0 -17 10 -7
12 -22 17 -49 17 -22 0 -40 5 -40 11 0 17 91 6 104 -13z m473 10 c-2 -7 -18
-13 -35 -14 -17 0 -38 -6 -46 -14 -23 -18 -29 -8 -10 18 11 16 25 22 55 22 28
0 39 -4 36 -12z m-1115 -100 c2 -21 0 -38 -4 -38 -4 0 -7 24 -7 53 1 54 5 49
11 -15z m1455 56 c-3 -3 -12 -4 -19 -1 -8 3 -5 6 6 6 11 1 17 -2 13 -5z
m-1143 -28 c12 3 35 0 51 -7 l30 -12 -43 -8 c-67 -13 -117 -46 -146 -98 -25
-44 -25 -45 -25 -16 1 56 23 98 62 118 20 10 37 24 38 30 0 8 2 8 6 0 3 -8 14
-11 27 -7z m1151 -4 c-3 -3 -11 0 -18 7 -9 10 -8 11 6 5 10 -3 15 -9 12 -12z
m2615 -9 c0 -18 -28 -53 -42 -53 -14 0 -9 32 9 52 20 22 33 23 33 1z m-4025
-11 c17 -10 39 -36 49 -58 10 -21 23 -46 27 -55 21 -44 -32 -28 -65 19 -30 44
-60 112 -49 112 5 0 22 -8 38 -18z m382 -30 c-9 -73 -25 -102 -58 -102 -37 0
-120 -40 -112 -54 3 -6 1 -6 -7 1 -7 6 -9 17 -5 23 12 19 87 50 121 50 29 0
33 4 43 44 6 25 11 54 11 65 0 12 3 21 6 21 4 0 4 -22 1 -48z m3771 36 c-2 -6
-14 -15 -27 -20 -16 -6 -21 -5 -18 5 2 6 10 11 16 10 6 -2 11 2 11 7 0 6 5 10
11 10 6 0 9 -5 7 -12z m-198 -28 c0 -5 -5 -10 -11 -10 -5 0 -7 5 -4 10 3 6 8
10 11 10 2 0 4 -4 4 -10z m-3636 -25 c-4 -8 -12 -15 -20 -15 -8 0 -14 7 -14
15 0 8 9 15 20 15 13 0 18 -5 14 -15z m81 -35 c-24 -52 -30 -46 -8 8 9 23 18
40 21 37 3 -3 -3 -23 -13 -45z m525 15 l0 -26 -157 3 c-133 3 -158 5 -158 18
0 12 26 16 155 20 85 3 156 7 158 8 1 1 2 -9 2 -23z m-1413 9 c-3 -3 -12 -4
-19 -1 -8 3 -5 6 6 6 11 1 17 -2 13 -5z m4605 -46 c-11 -11 -62 -3 -62 10 0 5
12 13 28 18 21 8 29 7 36 -4 5 -8 4 -18 -2 -24z m28 -46 c-19 -9 -45 -32 -57
-51 -24 -35 -31 -29 -12 12 12 27 55 56 84 57 14 0 10 -5 -15 -18z m-3880 -49
c0 -10 19 -37 42 -60 23 -24 36 -43 28 -43 -7 0 -11 -3 -7 -6 7 -8 -17 -34
-31 -34 -16 0 -20 23 -10 44 8 14 7 21 -3 27 -8 4 -29 19 -48 33 -31 23 -32
26 -13 26 13 0 22 6 22 15 0 8 5 15 10 15 6 0 10 -8 10 -17z m-290 0 c-1 -18
-17 -32 -37 -30 -24 1 -20 24 5 30 28 7 32 7 32 0z m3835 -2 c3 -5 -8 -9 -25
-9 -16 1 -30 5 -30 10 0 11 47 10 55 -1z m101 -16 c-7 -18 -4 -18 28 -4 13 6
36 9 50 5 45 -11 28 -21 -37 -20 -55 0 -65 -3 -90 -28 -15 -15 -30 -28 -32
-28 -14 0 24 53 51 70 35 24 38 24 30 5z m-133 -47 c-11 -13 -23 -30 -26 -38
-4 -10 -6 -8 -6 7 -1 12 9 29 21 37 31 22 35 20 11 -6z m470 10 c-2 -5 4 -8
13 -8 27 0 11 -10 -23 -14 -20 -2 -33 2 -41 14 -9 14 -6 17 23 16 18 -1 31 -4
28 -8z m-4028 -63 c15 -44 17 -59 8 -62 -34 -12 -5 -43 38 -43 12 0 17 -5 14
-11 -4 -5 -19 -7 -35 -4 -20 4 -29 2 -33 -9 -9 -23 -48 -20 -54 4 -5 19 -6 19
-18 4 -11 -15 -13 -14 -23 14 -6 18 -17 32 -25 32 -8 0 -20 7 -27 15 -20 24 6
47 49 43 28 -2 37 -8 39 -24 2 -13 13 -24 25 -28 38 -10 42 10 13 64 -26 48
-27 75 -3 67 7 -2 21 -30 32 -62z m3976 34 c16 -17 29 -39 29 -48 -1 -11 -13
-2 -38 26 -24 27 -48 43 -67 46 -26 3 -25 4 8 6 32 1 44 -5 68 -30z m-145 12
c-4 -5 -2 -11 3 -13 5 -1 -4 -27 -20 -57 l-29 -54 0 42 c0 40 24 90 43 91 5 0
6 -4 3 -9z m-176 -26 c0 -8 -7 -15 -15 -15 -13 0 -14 3 -3 15 16 18 18 18 18
0z m-3730 -5 c0 -5 -17 -10 -37 -9 -34 1 -35 2 -13 9 36 11 50 11 50 0z m3805
-42 c-22 -24 -41 -45 -43 -48 -2 -3 -1 9 3 25 8 33 39 65 63 65 11 0 3 -14
-23 -42z m-90 12 c-3 -5 -13 -10 -21 -10 -8 0 -28 -7 -44 -15 -17 -9 -30 -12
-30 -7 0 12 58 39 88 41 7 1 10 -3 7 -9z m287 -19 c-17 -17 -32 -35 -32 -40 0
-6 -6 -11 -14 -11 -8 0 -16 -5 -18 -12 -3 -7 -12 -9 -22 -5 -14 6 -16 14 -11
39 9 40 19 52 39 45 9 -4 12 -13 9 -27 -5 -18 -1 -17 25 9 17 17 36 31 43 31
8 0 -1 -13 -19 -29z m48 -6 c-7 -9 -15 -13 -18 -10 -3 2 1 11 8 20 7 9 15 13
18 10 3 -2 -1 -11 -8 -20z m-4236 3 c-6 -9 -3 -9 9 1 17 14 52 8 43 -8 -9 -14
-66 -19 -66 -6 0 6 3 15 7 18 11 11 15 8 7 -5z m388 -20 c23 5 31 -14 12 -32
-18 -19 -34 -21 -34 -4 0 6 -3 9 -6 5 -4 -3 -15 4 -24 16 -17 20 -17 22 -2 28
9 4 22 2 27 -5 6 -6 17 -10 27 -8z m3521 -22 c-29 -37 -40 -34 -29 9 4 14 15
25 29 27 32 5 32 3 0 -36z m-3785 -28 c-2 -17 1 -22 15 -20 9 2 20 -4 23 -12
3 -8 12 -12 20 -9 22 8 16 -14 -8 -31 -25 -18 -53 -21 -43 -6 3 6 1 10 -5 10
-7 0 -10 6 -7 14 3 8 -1 17 -9 20 -9 3 -12 10 -9 16 4 6 -6 10 -22 11 -17 1
-21 3 -10 6 9 2 15 9 12 14 -4 5 6 9 20 9 21 0 26 -4 23 -22z m3832 -8 c0 -11
-6 -20 -13 -20 -7 0 -13 9 -14 20 -1 11 4 20 13 20 8 0 14 -9 14 -20z m337 4
c-3 -3 -12 -4 -19 -1 -8 3 -5 6 6 6 11 1 17 -2 13 -5z m-847 -20 c0 -2 -9 -4
-21 -4 -11 0 -18 4 -14 10 5 8 35 3 35 -6z m1030 -7 c8 -3 -2 -6 -24 -6 -33
-1 -37 1 -26 14 8 9 17 12 24 6 6 -4 18 -11 26 -14z m-4145 -18 c-70 -25 -88
-22 -35 4 25 12 54 20 65 18 14 -3 6 -9 -30 -22z m-315 11 c0 -4 -7 -11 -16
-14 -22 -8 -24 -8 -24 7 0 7 9 13 20 14 11 1 20 -2 20 -7z m226 -38 c-4 -3
-14 2 -24 12 -16 18 -16 18 6 6 13 -6 21 -14 18 -18z m2797 -19 c-7 -2 -21 -2
-30 0 -10 3 -4 5 12 5 17 0 24 -2 18 -5z"/>
<path d="M5062 2984 c-7 -8 -17 -12 -23 -9 -5 4 -9 -1 -9 -10 0 -12 4 -13 18
-6 22 12 48 41 36 41 -5 -1 -15 -7 -22 -16z"/>
<path d="M4962 2915 c-13 -12 -41 -32 -62 -46 -22 -13 -40 -27 -40 -31 0 -4
15 2 33 12 44 27 103 77 97 83 -3 2 -15 -5 -28 -18z"/>
<path d="M4960 2850 c-8 -5 -12 -12 -9 -15 4 -3 12 1 19 10 14 17 11 19 -10 5z"/>
<path d="M2990 2650 c0 -5 5 -10 10 -10 6 0 10 5 10 10 0 6 -4 10 -10 10 -5 0
-10 -4 -10 -10z"/>
<path d="M3375 2460 c3 -5 8 -10 11 -10 2 0 4 5 4 10 0 6 -5 10 -11 10 -5 0
-7 -4 -4 -10z"/>
<path d="M2720 2450 c0 -5 5 -10 10 -10 6 0 10 5 10 10 0 6 -4 10 -10 10 -5 0
-10 -4 -10 -10z"/>
<path d="M2738 2393 c12 -2 32 -2 45 0 12 2 2 4 -23 4 -25 0 -35 -2 -22 -4z"/>
<path d="M3013 2453 c9 -2 25 -2 35 0 9 3 1 5 -18 5 -19 0 -27 -2 -17 -5z"/>
<path d="M1898 2133 c7 -3 16 -2 19 1 4 3 -2 6 -13 5 -11 0 -14 -3 -6 -6z"/>
<path d="M2014 2010 c0 -63 1 -89 3 -57 2 31 2 83 0 115 -2 31 -3 5 -3 -58z"/>
<path d="M2040 2080 c0 -11 5 -20 10 -20 6 0 10 9 10 20 0 11 -4 20 -10 20 -5
0 -10 -9 -10 -20z"/>
<path d="M2081 2068 c-1 -36 0 -37 39 -28 3 0 -2 6 -11 13 -9 7 -19 21 -22 32
-3 12 -5 5 -6 -17z"/>
<path d="M1852 2040 c0 -16 3 -32 7 -34 4 -3 8 10 9 29 1 19 -2 35 -7 35 -4 0
-8 -13 -9 -30z"/>
<path d="M2053 2005 c0 -22 2 -30 4 -17 2 12 2 30 0 40 -3 9 -5 -1 -4 -23z"/>
<path d="M1920 2011 c0 -5 7 -12 16 -15 14 -5 15 -4 4 9 -14 17 -20 19 -20 6z"/>
<path d="M2082 1995 c0 -16 2 -22 5 -12 2 9 2 23 0 30 -3 6 -5 -1 -5 -18z"/>
<path d="M1748 1954 c-1 -31 2 -59 7 -64 6 -4 39 -19 74 -33 61 -25 64 -25 82
-8 17 15 18 20 5 30 -7 6 -35 12 -60 13 -44 0 -46 2 -46 29 0 16 4 29 9 29 14
0 32 -26 23 -35 -4 -5 -2 -6 3 -3 6 4 10 21 9 40 -1 31 -4 33 -40 38 -21 3
-44 9 -51 13 -8 5 -12 -10 -15 -49z"/>
<path d="M2081 1920 c-1 -25 14 -50 31 -50 4 0 8 5 8 10 0 6 -6 10 -14 10 -8
0 -17 12 -19 28 -4 27 -4 27 -6 2z"/>
<path d="M1970 1886 c0 -3 9 -10 20 -16 11 -6 20 -8 20 -6 0 3 -9 10 -20 16
-11 6 -20 8 -20 6z"/>
<path d="M1740 1860 c0 -13 5 -18 15 -14 8 4 15 1 15 -5 0 -6 6 -11 13 -11 7
0 18 -15 26 -32 7 -19 15 -27 18 -20 2 6 9 10 14 6 5 -3 9 0 9 6 0 7 -7 10
-15 6 -9 -3 -15 0 -15 9 0 15 3 14 118 -32 6 -3 12 -3 12 -1 0 3 -30 18 -67
33 -38 15 -72 33 -78 39 -5 6 -22 17 -37 23 -25 11 -28 11 -28 -7z"/>
<path d="M1742 1810 c0 -14 2 -19 5 -12 2 6 2 18 0 25 -3 6 -5 1 -5 -13z"/>
<path d="M2033 1743 c3 -5 7 -26 9 -46 2 -33 5 -37 55 -55 48 -18 53 -18 49
-3 -2 9 -7 32 -10 52 -5 29 -12 38 -34 43 -15 3 -38 9 -51 12 -15 5 -22 3 -18
-3z"/>
<path d="M3060 2285 c0 -8 8 -11 20 -8 11 3 20 7 20 8 0 1 -9 5 -20 8 -12 3
-20 0 -20 -8z"/>
<path d="M2260 2270 c-9 -6 -10 -10 -3 -10 6 0 15 5 18 10 8 12 4 12 -15 0z"/>
<path d="M3132 2160 c-15 -24 -17 -114 -2 -105 6 3 8 18 6 32 -3 14 1 38 9 54
8 15 15 30 15 34 0 12 -16 4 -28 -15z"/>
<path d="M3085 2160 c-3 -5 -1 -10 4 -10 6 0 11 5 11 10 0 6 -2 10 -4 10 -3 0
-8 -4 -11 -10z"/>
<path d="M3097 2133 c-4 -3 -7 -13 -7 -22 1 -13 3 -13 11 2 11 19 8 33 -4 20z"/>
<path d="M3082 2055 c-14 -23 -17 -35 -9 -35 7 0 8 -3 2 -8 -12 -8 -13 -42 -2
-60 5 -6 5 -13 0 -13 -4 -1 -14 -2 -22 -3 -16 -1 -48 -46 -33 -46 6 0 13 8 15
18 4 16 5 16 6 0 4 -58 61 27 59 87 -1 17 2 43 7 58 11 41 0 43 -23 2z"/>
<path d="M3042 1980 c0 -19 2 -27 5 -17 2 9 2 25 0 35 -3 9 -5 1 -5 -18z"/>
<path d="M2260 1910 c0 -5 -7 -7 -15 -4 -9 4 -15 0 -15 -10 0 -9 8 -16 20 -16
13 0 20 7 20 20 0 11 -2 20 -5 20 -3 0 -5 -4 -5 -10z"/>
<path d="M2300 1900 c-8 -5 -12 -12 -8 -15 9 -9 59 6 52 16 -7 12 -25 11 -44
-1z"/>
<path d="M2366 1893 c-3 -3 2 -12 12 -19 19 -15 32 -18 32 -6 0 11 -37 32 -44
25z"/>
<path d="M3227 1883 c-4 -3 -7 -17 -7 -31 0 -21 2 -22 15 -12 8 7 15 21 15 31
0 19 -11 25 -23 12z"/>
<path d="M2991 1781 c-8 -6 -9 -11 -3 -15 6 -3 14 -1 17 5 9 14 2 20 -14 10z"/>
<path d="M2693 1753 c-7 -2 -13 -8 -13 -12 0 -11 49 -1 56 10 5 9 -22 11 -43
2z"/>
<path d="M2413 1700 c0 -30 2 -43 4 -27 2 15 2 39 0 55 -2 15 -4 2 -4 -28z"/>
<path d="M3002 1718 c5 -34 38 -37 38 -4 0 20 -5 26 -21 26 -15 0 -20 -5 -17
-22z"/>
<path d="M2990 1670 c-9 -6 -10 -10 -3 -10 6 0 15 5 18 10 8 12 4 12 -15 0z"/>
<path d="M2628 1653 c6 -2 18 -2 25 0 6 3 1 5 -13 5 -14 0 -19 -2 -12 -5z"/>
<path d="M2931 1634 c0 -11 3 -14 6 -6 3 7 2 16 -1 19 -3 4 -6 -2 -5 -13z"/>
<path d="M2411 1534 c0 -11 3 -14 6 -6 3 7 2 16 -1 19 -3 4 -6 -2 -5 -13z"/>
<path d="M2412 1485 c0 -16 2 -22 5 -12 2 9 2 23 0 30 -3 6 -5 -1 -5 -18z"/>
<path d="M2902 1480 c0 -14 2 -19 5 -12 2 6 2 18 0 25 -3 6 -5 1 -5 -13z"/>
<path d="M2230 1450 c0 -15 7 -20 25 -20 18 0 25 5 25 20 0 15 -7 20 -25 20
-18 0 -25 -5 -25 -20z"/>
<path d="M2315 1450 c3 -5 8 -10 11 -10 2 0 4 5 4 10 0 6 -5 10 -11 10 -5 0
-7 -4 -4 -10z"/>
<path d="M2400 1379 c0 -4 -10 -5 -22 -2 -23 5 -23 5 -3 -10 11 -9 30 -17 42
-17 12 0 23 -5 25 -12 5 -14 38 -4 38 12 0 5 -11 10 -25 10 -28 0 -34 16 -7
23 9 2 2 4 -15 4 -18 0 -33 -3 -33 -8z"/>
<path d="M2878 1383 c7 -3 16 -2 19 1 4 3 -2 6 -13 5 -11 0 -14 -3 -6 -6z"/>
<path d="M2924 1374 c4 -10 2 -21 -5 -24 -19 -13 24 -17 61 -7 l35 10 -30 7
-30 8 34 1 c45 1 37 7 -23 16 -44 6 -48 5 -42 -11z"/>
<path d="M3087 1353 c-13 -12 -7 -23 13 -23 11 0 20 7 20 15 0 15 -21 21 -33
8z"/>
<path d="M3030 1340 c0 -5 9 -10 20 -10 11 0 20 5 20 10 0 6 -9 10 -20 10 -11
0 -20 -4 -20 -10z"/>
<path d="M2398 1333 c7 -3 16 -2 19 1 4 3 -2 6 -13 5 -11 0 -14 -3 -6 -6z"/>
<path d="M2840 1328 c0 -9 -10 -19 -22 -22 -21 -6 -21 -7 -6 -16 20 -12 118
-19 118 -9 0 16 -22 20 -37 7 -9 -7 -14 -8 -10 -2 3 6 -5 22 -18 34 -19 18
-25 20 -25 8z"/>
<path d="M2994 1289 c-31 -7 -23 -10 43 -14 23 -2 49 2 58 8 12 10 7 12 -28
12 -24 0 -56 -3 -73 -6z"/>
<path d="M3146 1231 c-4 -7 -5 -15 -2 -18 9 -9 19 4 14 18 -4 11 -6 11 -12 0z"/>
<path d="M3626 2121 c-4 -7 -5 -15 -2 -18 9 -9 19 4 14 18 -4 11 -6 11 -12 0z"/>
<path d="M3622 2060 c0 -19 2 -27 5 -17 2 9 2 25 0 35 -3 9 -5 1 -5 -18z"/>
<path d="M930 1720 c0 -13 18 -22 24 -11 3 5 -1 11 -9 15 -8 3 -15 1 -15 -4z"/>
<path d="M4020 1655 c-11 -13 -15 -13 -21 -3 -6 8 -9 1 -9 -19 0 -18 2 -33 4
-33 3 0 14 14 26 31 23 31 23 51 0 24z"/>
<path d="M4715 1560 c3 -5 8 -10 11 -10 2 0 4 5 4 10 0 6 -5 10 -11 10 -5 0
-7 -4 -4 -10z"/>
<path d="M4820 1545 c0 -14 2 -25 4 -25 2 0 6 11 8 25 3 14 1 25 -3 25 -5 0
-9 -11 -9 -25z"/>
<path d="M4678 1383 c7 -3 16 -2 19 1 4 3 -2 6 -13 5 -11 0 -14 -3 -6 -6z"/>
<path d="M2152 1305 c0 -16 2 -22 5 -12 2 9 2 23 0 30 -3 6 -5 -1 -5 -18z"/>
<path d="M2072 1300 c0 -14 2 -19 5 -12 2 6 2 18 0 25 -3 6 -5 1 -5 -13z"/>
<path d="M2090 1300 c0 -11 4 -20 9 -20 5 0 7 9 4 20 -3 11 -7 20 -9 20 -2 0
-4 -9 -4 -20z"/>
<path d="M2120 1300 c0 -11 4 -20 8 -20 4 0 8 9 9 20 1 11 -2 20 -8 20 -5 0
-9 -9 -9 -20z"/>
<path d="M756 1057 c3 -10 9 -15 12 -12 3 3 0 11 -7 18 -10 9 -11 8 -5 -6z"/>
<path d="M1020 864 c0 -8 5 -12 10 -9 6 4 8 11 5 16 -9 14 -15 11 -15 -7z"/>
<path d="M995 3195 c0 -225 1 -319 2 -208 2 111 2 295 0 410 -1 114 -2 24 -2
-202z"/>
<path d="M1051 3591 c5 -13 92 -120 99 -121 3 0 5 28 5 63 l0 62 -54 3 c-33 2
-52 -1 -50 -7z"/>
<path d="M1245 3568 c7 -51 25 -59 25 -10 0 30 -4 42 -14 42 -10 0 -13 -9 -11
-32z"/>
<path d="M1292 3543 c2 -42 7 -57 16 -55 8 1 11 -1 8 -6 -6 -10 15 -62 25 -62
3 0 6 41 8 90 l2 90 -31 0 -31 0 3 -57z"/>
<path d="M1398 3591 c11 -6 13 -37 10 -134 -2 -86 1 -130 9 -138 8 -8 11 24
12 135 2 146 2 146 -21 146 -17 0 -19 -3 -10 -9z"/>
<path d="M1550 3539 c0 -37 4 -58 10 -54 6 3 10 31 10 61 0 30 -4 54 -10 54
-6 0 -10 -27 -10 -61z"/>
<path d="M1690 3550 c0 -41 -3 -50 -17 -48 -10 1 -31 0 -48 -2 -23 -2 -19 -5
20 -10 l50 -7 -50 -2 c-47 -3 -48 -3 -20 -12 17 -5 38 -7 48 -5 15 4 17 -5 17
-75 0 -63 3 -79 15 -79 8 0 22 -15 31 -32 l16 -33 -24 27 c-20 24 -30 27 -70
25 -57 -2 -63 -15 -10 -19 l37 -3 3 -142 c2 -123 0 -143 -13 -143 -8 0 -15 -5
-15 -11 0 -5 5 -7 10 -4 6 4 10 -15 10 -49 0 -31 5 -56 10 -56 6 0 10 21 10
48 0 55 19 40 21 -18 2 -33 2 -34 6 -5 l5 29 20 -24 c19 -24 19 -23 -1 11 -22
38 -28 64 -11 54 5 -3 19 -1 31 6 16 8 20 8 14 -1 -12 -19 4 -100 21 -100 11
0 14 16 15 73 0 39 3 66 6 60 2 -7 9 -13 14 -13 6 0 7 5 4 10 -10 16 7 12 28
-7 11 -10 17 -12 13 -5 -13 21 9 13 23 -9 11 -18 11 -23 -1 -30 -9 -6 -6 -9
10 -9 13 0 22 3 20 8 -12 27 -121 212 -125 212 -3 0 -3 -7 1 -15 3 -8 1 -15
-5 -15 -5 0 -8 12 -7 28 3 26 1 27 -49 30 -29 2 -53 8 -53 14 0 6 13 8 31 6
26 -4 30 -2 25 15 -4 18 -3 17 20 -4 23 -22 25 -22 38 -4 13 18 13 18 24 -1 6
-10 12 -14 12 -9 0 18 -21 34 -39 28 -11 -3 -12 -2 -3 4 17 12 -15 88 -43 102
-19 9 -19 10 3 10 12 1 22 7 22 14 1 7 7 4 15 -7 9 -12 12 -30 8 -49 -4 -21
-3 -28 5 -23 7 4 12 1 12 -8 0 -9 5 -16 11 -16 5 0 7 5 4 10 -9 14 1 12 35 -5
17 -9 30 -13 30 -10 0 17 -63 127 -76 132 -26 10 5 23 54 23 l42 0 1 -102 c1
-57 1 -106 0 -110 0 -5 3 -8 7 -8 5 0 14 -10 19 -23 10 -21 17 -23 59 -20 27
2 50 5 52 7 2 2 -5 21 -15 42 -17 36 -22 39 -68 45 -45 5 -46 6 -12 7 20 1 37
6 37 10 0 16 -52 137 -65 152 -7 8 -30 54 -51 103 -20 48 -41 87 -46 87 -4 0
-8 -2 -8 -4 0 -5 59 -138 71 -161 10 -18 10 -18 -4 -5 -8 8 -29 50 -47 93
l-32 77 -69 0 -69 0 0 -50z m17 -132 c-3 -7 -5 -2 -5 12 0 14 2 19 5 13 2 -7
2 -19 0 -25z m0 -50 c-3 -8 -6 -5 -6 6 -1 11 2 17 5 13 3 -3 4 -12 1 -19z m73
2 c0 -5 -2 -10 -4 -10 -3 0 -8 5 -11 10 -3 6 -1 10 4 10 6 0 11 -4 11 -10z
m-73 -42 c-3 -8 -6 -5 -6 6 -1 11 2 17 5 13 3 -3 4 -12 1 -19z m256 -48 c3
-11 1 -20 -4 -20 -5 0 -9 9 -9 20 0 11 2 20 4 20 2 0 6 -9 9 -20z m-250 -130
c-3 -11 -7 -20 -9 -20 -2 0 -4 9 -4 20 0 11 4 20 9 20 5 0 7 -9 4 -20z m-2
-98 c1 -34 -1 -65 -4 -69 -4 -3 -7 27 -7 67 0 88 9 90 11 2z m81 46 c-3 -12 1
-18 12 -18 9 0 16 -4 16 -10 0 -5 -5 -10 -11 -10 -7 0 -9 -11 -5 -30 6 -31 -7
-42 -18 -15 -3 8 -15 15 -26 15 -24 0 -27 20 -2 20 16 1 16 1 0 14 -10 7 -18
16 -18 20 0 3 8 7 18 7 16 1 16 2 0 6 -29 7 -20 24 11 21 22 -2 27 -6 23 -20z
m43 11 c11 -17 -1 -21 -15 -4 -8 9 -8 15 -2 15 6 0 14 -5 17 -11z m20 -39 c3
-5 1 -10 -4 -10 -6 0 -11 5 -11 10 0 6 2 10 4 10 3 0 8 -4 11 -10z m-11 -35
c3 -8 1 -15 -3 -15 -5 0 -11 7 -15 15 -3 8 -1 15 3 15 5 0 11 -7 15 -15z"/>
<path d="M1880 3575 c29 -76 50 -105 78 -105 15 0 32 -4 38 -10 5 -5 47 -10
93 -12 l84 -3 24 -69 c16 -50 23 -93 23 -150 0 -52 4 -76 9 -67 5 8 7 21 4 30
-3 10 -2 12 4 5 16 -22 86 -64 105 -64 11 0 29 -5 41 -12 33 -18 122 -24 141
-9 6 4 30 11 54 15 33 5 42 3 42 -8 0 -8 -6 -16 -12 -19 -27 -9 1 -17 39 -11
27 4 40 11 39 21 0 8 7 20 17 27 15 9 22 7 38 -13 15 -18 23 -21 31 -13 18 18
38 15 31 -4 -5 -15 -3 -15 25 0 17 9 40 16 50 16 11 0 25 7 32 15 15 18 47 20
53 3 3 -9 26 -12 80 -10 65 2 76 0 80 -15 3 -10 5 11 6 47 1 38 11 90 24 125
l22 60 113 0 c104 0 114 -2 127 -21 20 -31 8 -62 -34 -83 -32 -17 -39 -29 -69
-112 -18 -50 -31 -94 -29 -95 2 -2 14 6 26 17 21 20 23 20 21 3 -4 -37 0 -54
14 -54 8 0 18 5 22 12 4 7 3 8 -4 4 -8 -5 -12 1 -12 16 0 18 2 20 10 8 7 -11
10 2 11 45 l2 60 7 -50 c6 -44 7 -39 10 45 l4 95 6 -85 6 -85 4 90 4 90 6 -75
c4 -41 7 -60 8 -42 3 51 19 37 21 -19 1 -37 -3 -55 -14 -63 -14 -10 -13 -13 5
-28 16 -15 20 -15 20 -3 0 20 30 7 30 -14 1 -12 5 -11 20 8 12 13 26 21 35 18
28 -11 23 9 -10 41 l-33 32 14 68 c7 37 31 114 53 172 21 58 37 107 36 108 -2
2 -12 1 -23 -2 -19 -6 -38 -60 -35 -96 3 -28 -59 -201 -71 -197 -19 6 -18 34
2 79 31 70 35 96 37 236 l1 132 -52 0 c-48 0 -52 -2 -58 -27 -15 -66 -60 -193
-69 -193 -6 0 -8 41 -3 110 l6 110 -735 0 -735 0 10 -25z m1523 -142 c-3 -7
-9 -13 -14 -13 -11 0 -12 21 -2 46 6 16 7 16 13 -2 4 -10 5 -25 3 -31z m-953
-243 c0 -5 -7 -10 -15 -10 -8 0 -18 0 -22 -1 -4 0 -9 4 -11 10 -2 6 8 11 22
11 14 0 26 -4 26 -10z m83 -22 c4 -12 5 -23 4 -25 -7 -7 -47 29 -42 38 11 17
33 9 38 -13z m844 -10 c-3 -8 -6 -5 -6 6 -1 11 2 17 5 13 3 -3 4 -12 1 -19z
m-27 -55 c-11 -17 -11 -17 -6 0 3 10 6 24 7 30 0 9 2 9 5 0 3 -7 0 -20 -6 -30z
m131 22 c0 6 4 -1 8 -15 7 -23 -2 -39 -21 -40 -5 0 -8 17 -8 38 0 27 3 33 10
22 5 -8 10 -10 11 -5z"/>
<path d="M1475 3560 c4 -14 10 -47 14 -75 l7 -50 5 48 c3 37 0 55 -14 75 l-19
27 7 -25z"/>
<path d="M120 3542 c0 -5 9 -17 20 -27 15 -14 20 -15 20 -4 0 8 -9 20 -20 27
-11 7 -20 8 -20 4z"/>
<path d="M1180 3487 c0 -51 4 -68 20 -82 11 -10 20 -23 20 -30 0 -6 11 -22 25
-35 l25 -23 0 63 c0 59 -3 67 -41 117 -23 29 -43 53 -45 53 -2 0 -4 -29 -4
-63z"/>
<path d="M1054 3410 c3 -52 6 -140 7 -195 1 -55 5 -82 7 -60 5 39 5 38 16 -25
6 -36 10 -67 9 -69 -1 -2 -9 2 -18 9 -13 11 -15 9 -15 -11 0 -13 9 -30 20 -37
19 -12 20 -23 20 -257 0 -189 3 -245 13 -245 9 0 12 30 11 122 -1 68 0 115 3
106 2 -10 9 -18 15 -18 6 0 6 -6 -2 -15 -8 -9 -8 -15 -2 -15 6 0 12 -12 14
-27 2 -16 6 134 10 332 l6 360 -23 30 c-12 17 -39 48 -59 70 l-36 40 4 -95z
m23 -197 c-3 -10 -5 -2 -5 17 0 19 2 27 5 18 2 -10 2 -26 0 -35z"/>
<path d="M161 3348 c0 -75 3 -129 9 -133 10 -6 15 42 10 95 -14 160 -17 166
-19 38z"/>
<path d="M1290 3351 c0 -40 5 -63 15 -71 8 -7 15 -18 15 -24 0 -7 10 -22 23
-34 l22 -21 -1 60 c-2 51 -7 68 -34 105 -17 24 -33 44 -36 44 -2 0 -4 -26 -4
-59z"/>
<path d="M1658 3356 c-2 -20 -1 -36 3 -36 11 0 19 43 10 58 -6 11 -10 4 -13
-22z"/>
<path d="M90 3371 c0 -5 5 -13 10 -16 6 -3 10 -2 10 4 0 5 -4 13 -10 16 -5 3
-10 2 -10 -4z"/>
<path d="M1180 3229 c0 -68 4 -135 7 -149 7 -23 8 -21 14 15 4 28 7 11 8 -54
1 -79 -1 -92 -14 -87 -20 7 -19 -22 0 -48 12 -16 15 -62 15 -238 0 -139 4
-218 10 -218 6 0 10 38 11 93 0 50 5 115 9 142 7 38 8 20 6 -72 -2 -68 1 -123
5 -123 5 0 9 55 9 123 0 67 3 237 7 377 l6 255 -43 50 c-23 28 -44 52 -46 54
-2 2 -4 -52 -4 -120z"/>
<path d="M3531 3334 c0 -11 3 -14 6 -6 3 7 2 16 -1 19 -3 4 -6 -2 -5 -13z"/>
<path d="M3 3246 c-1 -33 1 -35 36 -39 l36 -4 -35 -1 c-34 -2 -36 -4 -36 -37
0 -34 1 -35 38 -35 l38 0 0 49 c0 39 -4 51 -17 54 -17 4 -17 5 0 6 10 1 17 9
17 21 0 16 -7 20 -38 20 -36 0 -38 -1 -39 -34z"/>
<path d="M552 3250 c0 -19 2 -27 5 -17 2 9 2 25 0 35 -3 9 -5 1 -5 -18z"/>
<path d="M1384 3238 c4 -23 12 -48 17 -55 6 -6 8 -16 5 -21 -2 -4 6 -21 19
-38 l24 -29 1 53 c0 43 -6 62 -27 93 -36 50 -47 49 -39 -3z"/>
<path d="M190 3220 c0 -11 4 -20 9 -20 5 0 7 9 4 20 -3 11 -7 20 -9 20 -2 0
-4 -9 -4 -20z"/>
<path d="M1296 3125 c3 -55 8 -241 10 -413 2 -173 7 -318 10 -323 3 -6 13 -8
21 -5 8 3 11 1 8 -4 -3 -6 -1 -10 4 -10 12 0 17 261 12 585 -3 186 -3 187 -50
245 l-21 25 6 -100z"/>
<path d="M3166 3178 c-8 -31 -7 -38 3 -38 5 0 11 14 13 30 5 35 -7 41 -16 8z"/>
<path d="M552 3165 c0 -16 2 -22 5 -12 2 9 2 23 0 30 -3 6 -5 -1 -5 -18z"/>
<path d="M1550 3164 c0 -10 5 -26 10 -34 8 -12 10 -9 7 12 -4 32 -17 50 -17
22z"/>
<path d="M1475 3130 c3 -25 6 -53 6 -62 0 -9 7 -22 15 -29 24 -20 18 80 -7
111 l-21 25 7 -45z"/>
<path d="M1933 3100 c0 -30 2 -43 4 -27 2 15 2 39 0 55 -2 15 -4 2 -4 -28z"/>
<path d="M328 3133 c12 -2 32 -2 45 0 12 2 2 4 -23 4 -25 0 -35 -2 -22 -4z"/>
<path d="M58 3113 c7 -3 16 -2 19 1 4 3 -2 6 -13 5 -11 0 -14 -3 -6 -6z"/>
<path d="M553 3040 c0 -47 2 -66 4 -42 2 23 2 61 0 85 -2 23 -4 4 -4 -43z"/>
<path d="M1380 3068 c0 -27 5 -48 10 -48 6 0 10 -33 10 -80 0 -79 0 -80 25
-80 25 0 25 1 25 88 -1 85 -2 88 -35 127 l-35 40 0 -47z"/>
<path d="M40 3090 c0 -5 9 -10 20 -10 11 0 20 5 20 10 0 6 -9 10 -20 10 -11 0
-20 -4 -20 -10z"/>
<path d="M2035 3033 c2 -44 7 -59 19 -61 11 -3 16 4 16 21 0 24 -26 97 -34 97
-3 0 -3 -26 -1 -57z"/>
<path d="M1541 3035 c0 -28 6 -58 14 -69 14 -18 15 -16 15 30 0 29 -6 59 -15
70 -13 17 -14 15 -14 -31z"/>
<path d="M48 3063 c19 -4 34 -25 15 -22 -21 3 -66 -4 -50 -8 20 -5 24 -58 5
-66 -7 -3 5 -5 27 -5 34 0 36 1 15 8 -19 6 -20 8 -6 9 15 1 16 4 6 16 -10 12
-9 15 6 16 14 1 13 3 -6 9 -24 8 -24 8 -2 9 15 1 22 7 22 21 0 15 -6 20 -27
19 -24 -2 -25 -2 -5 -6z"/>
<path d="M1643 3035 c0 -22 2 -30 4 -17 2 12 2 30 0 40 -3 9 -5 -1 -4 -23z"/>
<path d="M3587 3063 c-4 -3 -7 -22 -7 -41 0 -44 8 -38 15 11 6 37 4 43 -8 30z"/>
<path d="M1931 3015 c0 -11 6 -29 14 -39 19 -25 19 -17 0 25 -10 24 -14 28
-14 14z"/>
<path d="M1060 2958 c0 -45 4 -67 13 -71 8 -3 14 3 14 14 1 11 -2 17 -8 14 -5
-4 -9 3 -9 15 0 12 5 18 10 15 15 -10 11 38 -5 59 -14 18 -15 14 -15 -46z"/>
<path d="M1470 2937 c0 -60 2 -67 20 -67 17 0 20 7 20 48 0 36 -5 54 -20 67
-20 18 -20 17 -20 -48z"/>
<path d="M1630 2980 c-13 -8 -12 -10 3 -10 9 0 17 5 17 10 0 12 -1 12 -20 0z"/>
<path d="M3331 2964 c0 -11 3 -14 6 -6 3 7 2 16 -1 19 -3 4 -6 -2 -5 -13z"/>
<path d="M2090 2873 c0 -107 3 -113 44 -97 25 10 19 34 -9 34 -20 0 -25 5 -25
25 0 18 5 25 20 25 25 0 25 -3 -5 62 l-25 53 0 -102z"/>
<path d="M1663 2915 c0 -27 2 -38 4 -22 2 15 2 37 0 50 -2 12 -4 0 -4 -28z"/>
<path d="M3150 2931 c0 -30 1 -31 16 -16 16 15 16 18 0 33 -15 15 -16 14 -16
-17z"/>
<path d="M10 2940 c0 -5 5 -10 10 -10 14 0 12 -27 -2 -33 -7 -3 5 -5 27 -5 22
0 31 3 19 5 -16 3 -20 10 -16 29 3 19 0 24 -17 24 -11 0 -21 -4 -21 -10z"/>
<path d="M1868 2943 c7 -3 16 -2 19 1 4 3 -2 6 -13 5 -11 0 -14 -3 -6 -6z"/>
<path d="M71 2924 c0 -11 3 -14 6 -6 3 7 2 16 -1 19 -3 4 -6 -2 -5 -13z"/>
<path d="M1540 2895 c0 -18 5 -25 20 -25 20 0 20 1 4 25 -9 14 -18 25 -20 25
-2 0 -4 -11 -4 -25z"/>
<path d="M1642 2890 c0 -14 2 -19 5 -12 2 6 2 18 0 25 -3 6 -5 1 -5 -13z"/>
<path d="M1180 2881 c0 -11 5 -23 10 -26 6 -3 10 3 10 14 0 11 -4 23 -10 26
-5 3 -10 -3 -10 -14z"/>
<path d="M20 2870 c-12 -8 -9 -10 13 -10 16 0 26 4 22 10 -8 12 -16 12 -35 0z"/>
<path d="M1061 2849 c1 -27 3 -29 6 -10 4 19 7 21 14 10 5 -8 9 -9 9 -3 0 6
-7 17 -15 24 -13 11 -15 8 -14 -21z"/>
<path d="M3384 2873 c10 -11 36 -12 36 -2 0 5 -10 9 -22 9 -12 0 -18 -3 -14
-7z"/>
<path d="M5487 2867 c-12 -33 -8 -45 13 -40 20 5 28 23 11 23 -5 0 -11 8 -13
18 -3 16 -4 16 -11 -1z"/>
<path d="M5300 2852 c0 -10 5 -23 11 -29 8 -8 8 -17 0 -32 -13 -23 -11 -24 13
-15 9 3 13 10 10 15 -3 5 6 9 20 9 27 0 30 8 20 48 -6 21 -7 21 -20 5 -12 -17
-13 -17 -19 0 -9 22 -35 22 -35 -1z"/>
<path d="M1947 2843 c-10 -10 -8 -63 2 -63 5 0 11 7 15 15 3 8 1 15 -5 15 -6
0 -9 6 -6 13 2 7 16 11 35 9 18 -2 32 0 32 5 0 10 -64 15 -73 6z"/>
<path d="M1801 2818 c0 -16 -5 -28 -11 -28 -5 0 -10 -5 -10 -11 0 -5 5 -7 10
-4 6 3 10 1 10 -4 0 -6 10 -11 23 -11 20 1 20 2 5 13 -9 7 -18 26 -21 42 l-4
30 -2 -27z"/>
<path d="M1189 2828 c-6 -21 -5 -38 2 -38 5 0 9 9 9 20 0 16 -7 28 -11 18z"/>
<path d="M3440 2816 c0 -2 8 -10 18 -17 15 -13 16 -12 3 4 -13 16 -21 21 -21
13z"/>
<path d="M1060 2786 c0 -31 6 -34 13 -6 3 11 1 23 -4 26 -5 3 -9 -6 -9 -20z"/>
<path d="M1993 2804 c9 -3 17 -10 17 -15 0 -5 7 -9 16 -9 28 0 8 25 -22 27
-16 1 -21 -1 -11 -3z"/>
<path d="M3080 2779 c0 -5 5 -7 10 -4 6 3 10 8 10 11 0 2 -4 4 -10 4 -5 0 -10
-5 -10 -11z"/>
<path d="M1380 2756 c0 -8 5 -16 12 -18 9 -3 13 -47 13 -161 l0 -157 40 1 c22
1 31 3 20 6 -11 3 -24 10 -30 15 -7 8 -6 9 3 4 9 -6 12 28 12 153 0 118 3 161
13 164 6 3 -3 6 -21 6 -20 1 -31 -3 -27 -9 3 -5 1 -10 -4 -10 -6 0 -11 5 -11
10 0 6 -4 10 -10 10 -5 0 -10 -6 -10 -14z"/>
<path d="M1570 2744 c0 -21 4 -25 23 -22 14 2 23 11 25 26 3 18 -1 22 -22 22
-21 0 -26 -5 -26 -26z"/>
<path d="M1061 2729 c0 -15 5 -29 12 -32 8 -3 14 1 14 9 0 7 -4 11 -8 8 -4 -2
-10 6 -12 18 -4 21 -4 20 -6 -3z"/>
<path d="M1381 2704 c0 -11 3 -14 6 -6 3 7 2 16 -1 19 -3 4 -6 -2 -5 -13z"/>
<path d="M1381 2664 c0 -11 3 -14 6 -6 3 7 2 16 -1 19 -3 4 -6 -2 -5 -13z"/>
<path d="M1588 2663 c-22 -5 -22 -13 -4 -39 14 -18 15 -18 25 9 16 41 16 40
-21 30z"/>
<path d="M1191 2624 c0 -11 3 -14 6 -6 3 7 2 16 -1 19 -3 4 -6 -2 -5 -13z"/>
<path d="M1381 2624 c0 -11 3 -14 6 -6 3 7 2 16 -1 19 -3 4 -6 -2 -5 -13z"/>
<path d="M4970 2585 c-24 -13 -24 -14 -3 -12 12 1 25 7 27 14 6 16 7 16 -24
-2z"/>
<path d="M1575 2561 c-2 -5 2 -16 9 -26 15 -21 49 -14 40 9 -6 16 -41 28 -49
17z"/>
<path d="M4932 2528 c-75 -42 -59 -44 23 -3 38 19 60 34 49 34 -10 -1 -43 -15
-72 -31z"/>
<path d="M1050 2471 c0 -11 6 -22 13 -24 10 -4 10 -6 0 -6 -25 -2 -12 -29 22
-50 33 -19 35 -23 30 -61 -5 -35 -3 -40 14 -40 11 0 22 -6 24 -12 3 -7 6 24 6
70 l1 82 -47 30 c-55 35 -63 37 -63 11z"/>
<path d="M4830 2470 c-9 -6 -10 -10 -3 -10 6 0 15 5 18 10 8 12 4 12 -15 0z"/>
<path d="M555 2460 c3 -5 12 -7 20 -3 21 7 19 13 -6 13 -11 0 -18 -4 -14 -10z"/>
<path d="M1381 2454 c0 -11 3 -14 6 -6 3 7 2 16 -1 19 -3 4 -6 -2 -5 -13z"/>
<path d="M1245 2451 c-3 -5 -2 -12 3 -15 5 -3 9 1 9 9 0 17 -3 19 -12 6z"/>
<path d="M1180 2368 c0 -28 3 -48 6 -45 12 12 44 -35 44 -63 0 -24 15 -40 36
-40 3 0 4 33 3 73 l-2 72 -43 27 -44 27 0 -51z"/>
<path d="M1280 2316 c0 -21 9 -42 25 -60 14 -15 25 -38 25 -50 0 -13 6 -26 13
-29 9 -3 12 14 12 64 0 66 -2 70 -30 89 -40 27 -45 25 -45 -14z"/>
<path d="M1420 2322 c14 -11 27 -16 29 -11 4 13 2 15 -29 24 l-25 8 25 -21z"/>
<path d="M1469 2338 c-9 -33 -6 -46 16 -56 23 -11 25 -10 25 17 0 17 -6 31
-16 35 -17 6 -24 7 -25 4z"/>
<path d="M1532 2289 c2 -30 9 -46 26 -57 l23 -15 -3 54 c-3 48 -6 54 -26 57
-22 3 -23 0 -20 -39z"/>
<path d="M1380 2250 c0 -27 5 -43 15 -46 9 -4 15 -19 15 -36 0 -17 4 -27 10
-23 6 3 11 0 12 -7 1 -7 4 16 7 52 6 61 5 66 -19 82 -36 25 -40 23 -40 -22z"/>
<path d="M1462 2208 c1 -18 5 -37 9 -43 4 -5 9 -21 11 -34 7 -49 26 -33 30 24
3 49 0 58 -19 71 -31 20 -34 18 -31 -18z"/>
<path d="M1623 2233 c9 -2 25 -2 35 0 9 3 1 5 -18 5 -19 0 -27 -2 -17 -5z"/>
<path d="M1530 2165 c0 -21 8 -43 19 -54 19 -19 19 -19 26 15 7 38 3 49 -26
64 -17 10 -19 7 -19 -25z"/>
<path d="M551 2084 c0 -11 3 -14 6 -6 3 7 2 16 -1 19 -3 4 -6 -2 -5 -13z"/>
<path d="M455 2080 c4 -6 11 -8 16 -5 14 9 11 15 -7 15 -8 0 -12 -5 -9 -10z"/>
<path d="M556 2052 c-9 -15 -6 -967 4 -982 6 -9 9 172 10 488 0 276 -2 502 -4
502 -3 0 -7 -4 -10 -8z"/>
<path d="M612 1890 c1 -34 2 -37 6 -15 4 26 5 28 12 10 8 -17 9 -16 9 8 1 16
-3 26 -8 23 -5 -4 -12 0 -14 6 -3 7 -5 -7 -5 -32z"/>
<path d="M5305 1910 c-3 -5 -1 -10 4 -10 6 0 11 5 11 10 0 6 -2 10 -4 10 -3 0
-8 -4 -11 -10z"/>
<path d="M5363 1855 c0 -22 2 -30 4 -17 2 12 2 30 0 40 -3 9 -5 -1 -4 -23z"/>
<path d="M5241 1834 c0 -11 3 -14 6 -6 3 7 2 16 -1 19 -3 4 -6 -2 -5 -13z"/>
<path d="M5323 1793 c15 -2 39 -2 55 0 15 2 2 4 -28 4 -30 0 -43 -2 -27 -4z"/>
<path d="M5433 1793 c15 -2 37 -2 50 0 12 2 0 4 -28 4 -27 0 -38 -2 -22 -4z"/>
<path d="M5242 1750 c0 -14 2 -19 5 -12 2 6 2 18 0 25 -3 6 -5 1 -5 -13z"/>
<path d="M456 1218 c2 -139 4 -256 4 -260 0 -5 3 -8 8 -8 4 0 7 117 7 260 0
188 -3 260 -11 260 -9 0 -11 -68 -8 -252z"/>
<path d="M1 1224 c0 -11 3 -14 6 -6 3 7 2 16 -1 19 -3 4 -6 -2 -5 -13z"/>
<path d="M5496 1165 c-4 -14 -3 -31 0 -37 5 -8 2 -9 -9 -5 -10 3 -17 2 -17 -3
0 -6 -7 -10 -17 -10 -9 0 -13 -3 -10 -7 4 -3 2 -12 -4 -19 -8 -10 -5 -11 12
-7 15 4 20 3 15 -5 -4 -7 -1 -12 6 -12 24 1 47 45 45 89 -2 46 -12 54 -21 16z"/>
<path d="M5247 1033 c-11 -11 -8 -20 8 -20 8 0 15 6 15 14 0 14 -12 17 -23 6z"/>
<path d="M5490 1025 c0 -9 6 -12 15 -9 8 4 15 10 15 15 0 5 -7 9 -15 9 -8 0
-15 -7 -15 -15z"/>
<path d="M435 1009 c-4 -6 -5 -12 -2 -15 2 -3 7 2 10 11 7 17 1 20 -8 4z"/>
<path d="M630 990 c-8 -5 -12 -12 -9 -15 4 -3 12 1 19 10 14 17 11 19 -10 5z"/>
<path d="M5110 989 c0 -5 5 -7 10 -4 6 3 10 8 10 11 0 2 -4 4 -10 4 -5 0 -10
-5 -10 -11z"/>
<path d="M5485 970 c-10 -12 -24 -19 -30 -16 -7 2 -18 0 -26 -5 -11 -7 -10 -9
5 -9 10 0 33 -9 52 -20 l33 -21 -1 31 c-1 16 -5 30 -10 30 -4 0 -8 5 -8 11 0
5 5 7 12 3 7 -4 8 -3 4 4 -9 16 -10 15 -31 -8z"/>
<path d="M461 926 c-23 -13 -23 -13 -3 -18 14 -4 22 0 25 13 3 11 4 19 4 19
-1 -1 -13 -7 -26 -14z"/>
<path d="M5377 905 c-47 -16 -59 -26 -26 -23 13 2 27 6 30 10 3 5 17 9 31 10
15 1 24 6 22 10 -7 10 -12 10 -57 -7z"/>
<path d="M5453 906 c6 -16 -3 -21 -32 -16 -12 1 -12 -1 -3 -12 14 -18 -11 -48
-88 -106 -30 -22 -68 -55 -85 -73 l-30 -32 28 18 c15 9 27 13 27 9 0 -5 5 -1
11 9 10 18 12 18 30 1 18 -16 19 -16 19 4 0 14 6 22 16 22 13 0 14 3 5 13 -15
19 -4 27 35 27 28 0 33 4 39 30 4 17 20 43 36 59 35 35 35 37 7 52 -18 10 -20
9 -15 -5z"/>
<path d="M5488 741 c-27 -45 -28 -67 -2 -57 7 3 16 0 20 -6 4 -7 3 -8 -4 -4
-14 9 -15 -3 -2 -24 16 -25 21 -5 18 66 l-3 69 -27 -44z"/>
<path d="M5411 724 c0 -11 3 -14 6 -6 3 7 2 16 -1 19 -3 4 -6 -2 -5 -13z"/>
<path d="M5155 640 c-3 -6 1 -7 9 -4 18 7 21 14 7 14 -6 0 -13 -4 -16 -10z"/>
<path d="M4230 620 c-9 -6 -10 -10 -3 -10 6 0 15 5 18 10 8 12 4 12 -15 0z"/>
<path d="M4290 615 c0 -6 30 -18 70 -29 19 -5 16 -2 -10 13 -34 20 -60 26 -60
16z"/>
<path d="M400 530 c-12 -8 -12 -10 5 -10 11 0 27 5 35 10 12 8 12 10 -5 10
-11 0 -27 -5 -35 -10z"/>
<path d="M4895 523 c-16 -2 -86 -7 -155 -12 l-125 -8 155 -3 c184 -4 182 -5
242 5 35 6 47 4 50 -6 2 -11 10 -11 38 3 l35 18 -85 0 c-47 0 -94 2 -105 4
-11 2 -33 1 -50 -1z"/>
<path d="M990 455 c-14 -16 -40 -20 -40 -6 0 5 -10 7 -22 3 -21 -5 -21 -5 2
-14 13 -5 33 -8 45 -6 11 1 25 -1 31 -4 13 -8 54 1 54 12 0 12 -30 21 -42 13
-7 -3 -8 -1 -4 5 11 17 -9 15 -24 -3z"/>
<path d="M1078 443 c7 -3 16 -2 19 1 4 3 -2 6 -13 5 -11 0 -14 -3 -6 -6z"/>
<path d="M1208 440 c17 -4 47 -4 65 0 25 6 19 8 -33 8 -52 0 -58 -2 -32 -8z"/>
<path d="M894 409 c0 -10 4 -19 8 -19 14 0 9 -22 -9 -35 -10 -8 -12 -14 -5
-19 6 -3 23 4 39 17 15 13 35 27 43 30 8 4 0 5 -18 4 -30 -3 -33 -1 -30 18 3
14 -1 21 -12 22 -9 1 -16 -6 -16 -18z"/>
<path d="M806 398 c3 -5 10 -6 15 -3 13 9 11 12 -6 12 -8 0 -12 -4 -9 -9z"/>
<path d="M858 403 c7 -3 16 -2 19 1 4 3 -2 6 -13 5 -11 0 -14 -3 -6 -6z"/>
<path d="M1021 401 c-8 -5 2 -8 28 -6 23 1 44 5 48 9 10 9 -60 7 -76 -3z"/>
<path d="M480 220 c0 -5 -5 -10 -11 -10 -6 0 -17 -7 -25 -15 -9 -8 -24 -15
-34 -15 -10 0 -22 -5 -26 -12 -4 -6 -3 -8 3 -5 6 4 17 -1 26 -11 12 -14 29
-17 74 -15 32 2 117 3 188 4 79 1 120 4 105 9 -14 4 -40 8 -57 9 -18 1 -33 5
-33 10 0 5 -23 12 -52 15 -28 4 -57 10 -62 14 -6 4 -22 8 -35 10 -14 2 -33 8
-43 13 -12 6 -18 6 -18 -1z"/>
<path d="M1643 214 c19 -18 133 -25 154 -8 16 12 13 13 -27 15 -25 0 -66 2
-92 3 -37 1 -45 -1 -35 -10z"/>
<path d="M1925 220 c-18 -8 -17 -9 8 -9 16 -1 26 3 22 9 -3 6 -7 10 -8 9 -1 0
-11 -4 -22 -9z"/>
<path d="M1580 210 c0 -5 6 -10 14 -10 8 0 18 5 21 10 3 6 -3 10 -14 10 -12 0
-21 -4 -21 -10z"/>
<path d="M2033 203 c9 -2 23 -2 30 0 6 3 -1 5 -18 5 -16 0 -22 -2 -12 -5z"/>
<path d="M2091 200 c8 -6 7 -9 -2 -13 -11 -3 -10 -6 4 -12 16 -7 47 9 47 25 0
3 -14 7 -30 7 -17 0 -26 -4 -19 -7z"/>
<path d="M1030 170 c-8 -6 -37 -10 -65 -10 -27 0 -64 0 -82 0 -35 0 -92 -18
-60 -19 9 -1 25 -5 35 -10 9 -5 28 -14 42 -20 19 -8 -27 -10 -180 -7 -113 1
-215 5 -226 8 -21 6 -149 -33 -166 -50 -5 -5 -38 1 -76 14 -48 15 -88 21 -133
20 -50 -2 -70 1 -91 16 l-28 19 0 -65 0 -66 1699 0 c1351 0 1700 3 1704 12 4
10 6 10 6 1 1 -10 131 -12 576 -13 316 0 575 2 575 5 0 2 -26 24 -57 47 l-56
43 -339 3 c-325 4 -366 0 -325 -25 6 -4 22 -6 35 -4 12 1 22 -3 22 -9 0 -6 -5
-8 -12 -4 -10 6 -10 5 -1 -8 7 -8 10 -18 6 -21 -9 -10 -53 -8 -53 2 0 4 -12 7
-27 5 -33 -3 -71 25 -51 38 9 5 5 8 -12 9 -14 1 -28 1 -32 0 -73 -10 -132 -10
-138 -1 -9 15 -114 29 -179 25 -38 -3 -51 0 -51 10 0 19 -21 30 -30 15 -5 -9
-13 -9 -26 -2 -11 6 -31 8 -45 5 -15 -3 -30 0 -33 6 -5 7 -15 7 -32 1 -14 -6
-30 -8 -35 -5 -5 4 -6 -1 -3 -10 5 -11 2 -14 -12 -8 -12 4 -15 3 -10 -5 5 -9
-5 -12 -34 -12 -27 0 -43 5 -46 15 -4 8 -11 12 -18 7 -6 -4 -36 -8 -66 -10
-30 -1 -103 -5 -162 -8 -85 -4 -113 -2 -137 10 -19 10 -32 12 -36 6 -3 -6 -14
-10 -24 -10 -10 0 -25 -8 -32 -18 -12 -15 -12 -16 2 -4 17 13 52 12 57 -1 6
-19 -3 -22 -68 -22 -60 0 -70 3 -70 18 0 15 -16 22 -47 18 -6 -1 -14 3 -18 9
-4 6 -13 7 -23 1 -9 -5 -39 -12 -66 -16 -37 -6 -47 -5 -41 4 4 8 -1 14 -15 18
-16 4 -18 8 -8 14 9 6 4 9 -14 9 -16 0 -28 -4 -28 -9 0 -5 -9 -7 -20 -4 -11 3
-26 1 -33 -5 -7 -6 -23 -9 -35 -5 -12 3 -29 0 -37 -7 -12 -10 -15 -10 -15 1 0
10 -3 10 -12 1 -9 -9 -80 -12 -260 -12 -231 0 -250 -1 -284 -21 -20 -11 -43
-27 -52 -35 -11 -12 -17 -12 -22 -3 -5 7 -13 8 -21 3 -8 -4 -27 -7 -44 -6 -16
2 -52 -2 -80 -7 -29 -5 -54 -6 -61 0 -6 5 -15 4 -23 -4 -9 -9 -14 -9 -21 3 -8
13 -11 13 -19 1 -6 -9 -18 -11 -34 -7 -14 3 -29 2 -32 -4 -3 -5 -11 -10 -16
-10 -20 0 3 21 45 40 24 11 46 26 50 35 3 8 13 15 21 15 9 0 13 -4 10 -10 -9
-14 5 -13 68 9 32 11 57 17 57 14 0 -3 6 -1 13 5 15 13 63 4 78 -14 15 -18 69
-18 69 0 0 9 -25 17 -80 26 -44 7 -77 16 -74 21 3 5 -6 9 -20 9 -16 0 -26 -6
-26 -14 0 -25 -17 -27 -52 -7 -30 16 -37 17 -53 5 -10 -8 -24 -14 -29 -14 -6
0 -4 4 4 10 13 8 13 9 0 14 -8 2 -30 9 -49 15 -40 13 -33 13 -51 1z m20 -60
c0 -5 -11 -10 -25 -10 -14 0 -25 5 -25 10 0 6 11 10 25 10 14 0 25 -4 25 -10z
m1546 -47 c-10 -10 -19 5 -10 18 6 11 8 11 12 0 2 -7 1 -15 -2 -18z"/>
<path d="M4814 75 c8 -8 19 -15 25 -15 5 0 33 -14 61 -30 l51 -30 286 0 c256
0 285 2 279 16 -3 9 -6 18 -6 20 0 2 -53 4 -117 5 -65 0 -145 5 -178 10 -33 6
-80 12 -104 16 -30 3 -39 8 -30 14 8 5 -46 9 -134 9 -132 0 -147 -2 -133 -15z"/>
</g>
</svg>
